<svg version="1.1" viewBox="0.0 0.0 960.0 720.0" fill="none" stroke="none" stroke-linecap="square" stroke-miterlimit="10" xmlns:xlink="http://www.w3.org/1999/xlink" xmlns="http://www.w3.org/2000/svg"><clipPath id="p.0"><path d="m0 0l960.0 0l0 720.0l-960.0 0l0 -720.0z" clip-rule="nonzero"/></clipPath><g clip-path="url(#p.0)"><path fill="#000000" fill-opacity="0.0" d="m0 0l960.0 0l0 720.0l-960.0 0z" fill-rule="evenodd"/><path fill="#000000" d="m118.073494 311.23358l0 0c0 -7.4449463 5.7462616 -13.480286 12.834648 -13.480286l0 0c3.4039612 0 6.668503 1.420227 9.075455 3.9482727c2.4069672 2.5280457 3.7591858 5.9568176 3.7591858 9.532013l0 0c0 7.444977 -5.7462616 13.480316 -12.8346405 13.480316l0 0c-7.0883865 0 -12.834648 -6.0353394 -12.834648 -13.480316z" fill-rule="evenodd"/><path stroke="#000000" stroke-width="1.0" stroke-linejoin="round" stroke-linecap="butt" d="m118.073494 311.23358l0 0c0 -7.4449463 5.7462616 -13.480286 12.834648 -13.480286l0 0c3.4039612 0 6.668503 1.420227 9.075455 3.9482727c2.4069672 2.5280457 3.7591858 5.9568176 3.7591858 9.532013l0 0c0 7.444977 -5.7462616 13.480316 -12.8346405 13.480316l0 0c-7.0883865 0 -12.834648 -6.0353394 -12.834648 -13.480316z" fill-rule="evenodd"/><path fill="#000000" d="m445.9449 311.23358l0 0c0 -7.4449463 5.746277 -13.480286 12.834656 -13.480286l0 0c3.4039612 0 6.6684875 1.420227 9.075439 3.9482727c2.4069824 2.5280457 3.7591858 5.9568176 3.7591858 9.532013l0 0c0 7.444977 -5.7462463 13.480316 -12.834625 13.480316l0 0c-7.088379 0 -12.834656 -6.0353394 -12.834656 -13.480316z" fill-rule="evenodd"/><path stroke="#000000" stroke-width="1.0" stroke-linejoin="round" stroke-linecap="butt" d="m445.9449 311.23358l0 0c0 -7.4449463 5.746277 -13.480286 12.834656 -13.480286l0 0c3.4039612 0 6.6684875 1.420227 9.075439 3.9482727c2.4069824 2.5280457 3.7591858 5.9568176 3.7591858 9.532013l0 0c0 7.444977 -5.7462463 13.480316 -12.834625 13.480316l0 0c-7.088379 0 -12.834656 -6.0353394 -12.834656 -13.480316z" fill-rule="evenodd"/><path fill="#000000" d="m703.22833 311.23358l0 0c0 -7.4449463 5.746277 -13.480286 12.834656 -13.480286l0 0c3.4039917 0 6.668518 1.420227 9.075439 3.9482727c2.4069824 2.5280457 3.7592163 5.9568176 3.7592163 9.532013l0 0c0 7.444977 -5.746277 13.480316 -12.834656 13.480316l0 0c-7.088379 0 -12.834656 -6.0353394 -12.834656 -13.480316z" fill-rule="evenodd"/><path stroke="#000000" stroke-width="1.0" stroke-linejoin="round" stroke-linecap="butt" d="m703.22833 311.23358l0 0c0 -7.4449463 5.746277 -13.480286 12.834656 -13.480286l0 0c3.4039917 0 6.668518 1.420227 9.075439 3.9482727c2.4069824 2.5280457 3.7592163 5.9568176 3.7592163 9.532013l0 0c0 7.444977 -5.746277 13.480316 -12.834656 13.480316l0 0c-7.088379 0 -12.834656 -6.0353394 -12.834656 -13.480316z" fill-rule="evenodd"/><path fill="#000000" fill-opacity="0.0" d="m142.45932 279.7874l295.1811 1.2913208" fill-rule="evenodd"/><path stroke="#000000" stroke-width="1.0" stroke-linejoin="round" stroke-linecap="butt" d="m142.45932 279.7874l289.18115 1.2650757" fill-rule="evenodd"/><path fill="#000000" stroke="#000000" stroke-width="1.0" stroke-linecap="butt" d="m431.63324 282.70422l4.545288 -1.6318665l-4.5308228 -1.6715698z" fill-rule="evenodd"/><path fill="#000000" fill-opacity="0.0" d="m478.71652 281.06824l222.04727 0" fill-rule="evenodd"/><path stroke="#000000" stroke-width="1.0" stroke-linejoin="round" stroke-linecap="butt" d="m478.71652 281.06824l216.04727 0" fill-rule="evenodd"/><path fill="#000000" stroke="#000000" stroke-width="1.0" stroke-linecap="butt" d="m694.7638 282.71997l4.538086 -1.6517334l-4.538086 -1.6517334z" fill-rule="evenodd"/><path fill="#000000" fill-opacity="0.0" d="m441.49606 343.958l-286.2047 0" fill-rule="evenodd"/><path stroke="#000000" stroke-width="1.0" stroke-linejoin="round" stroke-linecap="butt" d="m441.49606 343.958l-280.2047 0" fill-rule="evenodd"/><path fill="#000000" stroke="#000000" stroke-width="1.0" stroke-linecap="butt" d="m161.29134 342.30627l-4.538101 1.6517334l4.538101 1.6517334z" fill-rule="evenodd"/><path fill="#000000" fill-opacity="0.0" d="m699.46454 343.958l-213.03934 -2.582672" fill-rule="evenodd"/><path stroke="#000000" stroke-width="1.0" stroke-linejoin="round" stroke-linecap="butt" d="m699.46454 343.958l-207.0398 -2.5099487" fill-rule="evenodd"/><path fill="#000000" stroke="#000000" stroke-width="1.0" stroke-linecap="butt" d="m492.44476 339.79645l-4.55777 1.5965881l4.5177307 1.7066345z" fill-rule="evenodd"/><path fill="#000000" fill-opacity="0.0" d="m133.47507 261.8189l577.54333 2.582672" fill-rule="evenodd"/><path stroke="#000000" stroke-width="1.0" stroke-linejoin="round" stroke-linecap="butt" d="m133.47507 261.8189l571.54333 2.5558472" fill-rule="evenodd"/><path fill="#000000" stroke="#000000" stroke-width="1.0" stroke-linecap="butt" d="m705.01105 266.02646l4.54541 -1.6314087l-4.5306396 -1.6720276z" fill-rule="evenodd"/><path fill="#000000" fill-opacity="0.0" d="m714.86615 368.34122l-580.0945 -2.582672" fill-rule="evenodd"/><path stroke="#000000" stroke-width="1.0" stroke-linejoin="round" stroke-linecap="butt" d="m714.86615 368.34122l-574.09454 -2.5559998" fill-rule="evenodd"/><path fill="#000000" stroke="#000000" stroke-width="1.0" stroke-linecap="butt" d="m140.77895 364.1335l-4.54541 1.6315308l4.5307007 1.6719055z" fill-rule="evenodd"/><path fill="#000000" fill-opacity="0.0" d="m417.6929 291.5092l53.921265 0l0 42.015747l-53.921265 0z" fill-rule="evenodd"/><path fill="#000000" d="m431.89603 318.4292l0 -5.65625l-5.15625 -7.703125l2.15625 0l2.640625 4.03125q0.71875 1.125 1.34375 2.265625q0.609375 -1.046875 1.46875 -2.359375l2.578125 -3.9375l2.0625 0l-5.328125 7.703125l0 5.65625l-1.765625 0z" fill-rule="nonzero"/><path fill="#000000" fill-opacity="0.0" d="m85.9895 290.2257l20.53543 0l0 42.015747l-20.53543 0z" fill-rule="evenodd"/><path fill="#000000" d="m95.06763 317.14572l5.171875 -6.953125l-4.5625 -6.40625l2.109375 0l2.421875 3.4375q0.75 1.0625 1.078125 1.625q0.4375 -0.71875 1.046875 -1.515625l2.6875 -3.546875l1.921875 0l-4.6875 6.296875l5.0625 7.0625l-2.1875 0l-3.359375 -4.765625q-0.28125 -0.40625 -0.59375 -0.890625q-0.4375 0.734375 -0.625 1.0l-3.359375 4.65625l-2.125 0z" fill-rule="nonzero"/><path fill="#000000" fill-opacity="0.0" d="m673.7979 300.32022l37.228333 0l0 42.015747l-37.228333 0z" fill-rule="evenodd"/><path fill="#000000" d="m683.1729 327.2402l0 -1.640625l6.84375 -8.546875q0.71875 -0.921875 1.375 -1.59375l-7.453125 0l0 -1.578125l9.578125 0l0 1.578125l-7.5 9.265625l-0.8125 0.9375l8.53125 0l0 1.578125l-10.5625 0z" fill-rule="nonzero"/><path fill="#000000" fill-opacity="0.0" d="m260.68634 274.65353l68.31497 0l0 42.015747l-68.31497 0z" fill-rule="evenodd"/><path fill="#000000" d="m271.31134 301.57355l0 -8.40625l-1.453125 0l0 -1.265625l1.453125 0l0 -1.03125q0 -0.96875 0.171875 -1.453125q0.234375 -0.640625 0.828125 -1.03125q0.59375 -0.390625 1.671875 -0.390625q0.6875 0 1.53125 0.15625l-0.25 1.4375q-0.5 -0.09375 -0.953125 -0.09375q-0.75 0 -1.0625 0.328125q-0.3125 0.3125 -0.3125 1.1875l0 0.890625l1.890625 0l0 1.265625l-1.890625 0l0 8.40625l-1.625 0z" fill-rule="nonzero"/><path fill="#000000" fill-opacity="0.0" d="m337.54068 308.9685l48.75592 0l0 42.015747l-48.75592 0z" fill-rule="evenodd"/><path fill="#000000" d="m347.46255 336.68536l1.59375 0.234375q0.109375 0.75 0.5625 1.078125q0.609375 0.453125 1.671875 0.453125q1.140625 0 1.75 -0.453125q0.625 -0.453125 0.84375 -1.265625q0.125 -0.5 0.109375 -2.109375q-1.0625 1.265625 -2.671875 1.265625q-2.0 0 -3.09375 -1.4375q-1.09375 -1.4375 -1.09375 -3.453125q0 -1.390625 0.5 -2.5625q0.515625 -1.171875 1.453125 -1.796875q0.953125 -0.640625 2.25 -0.640625q1.703125 0 2.8125 1.375l0 -1.15625l1.515625 0l0 8.359375q0 2.265625 -0.46875 3.203125q-0.453125 0.9375 -1.453125 1.484375q-0.984375 0.546875 -2.453125 0.546875q-1.71875 0 -2.796875 -0.78125q-1.0625 -0.765625 -1.03125 -2.34375zm1.359375 -5.8125q0 1.90625 0.75 2.78125q0.765625 0.875 1.90625 0.875q1.125 0 1.890625 -0.859375q0.765625 -0.875 0.765625 -2.734375q0 -1.78125 -0.796875 -2.671875q-0.78125 -0.90625 -1.890625 -0.90625q-1.09375 0 -1.859375 0.890625q-0.765625 0.875 -0.765625 2.625z" fill-rule="nonzero"/><path fill="#000000" fill-opacity="0.0" d="m394.0105 227.16536l77.60629 0l0 43.622055l-77.60629 0z" fill-rule="evenodd"/><path fill="#ffffff" d="m413.37183 236.16536l12.646484 0l0 23.999985l-12.646484 0l0 -23.999985z" fill-rule="nonzero"/><path fill="#000000" d="m404.74487 255.36536l0 -9.0l-1.546875 0l0 -1.375l1.546875 0l0 -1.09375q0 -1.046875 0.1875 -1.5625q0.25 -0.6875 0.890625 -1.109375q0.640625 -0.421875 1.796875 -0.421875q0.75 0 1.640625 0.171875l-0.265625 1.53125q-0.546875 -0.09375 -1.03125 -0.09375q-0.796875 0 -1.140625 0.34375q-0.328125 0.34375 -0.328125 1.28125l0 0.953125l2.03125 0l0 1.375l-2.03125 0l0 9.0l-1.75 0zm5.4023438 -12.421875l0 -2.046875l1.875 0l0 1.609375q0 1.3125 -0.296875 1.890625q-0.421875 0.796875 -1.3125 1.1875l-0.421875 -0.6875q0.515625 -0.21875 0.765625 -0.671875q0.265625 -0.46875 0.296875 -1.28125l-0.90625 0z" fill-rule="nonzero"/><path fill="#010000" fill-opacity="0.0" d="m413.37183 237.25989l12.646484 0l0 22.998047l-12.646484 0l0 -22.998047z" fill-rule="nonzero"/><path fill="#000000" d="m416.9187 246.30286q1.015625 0 1.734375 0.71875q0.71875 0.71875 0.71875 1.734375q0 1.015625 -0.71875 1.734375q-0.71875 0.71875 -1.734375 0.71875q-1.015625 0 -1.734375 -0.71875q-0.71875 -0.71875 -0.71875 -1.734375q0 -1.015625 0.703125 -1.734375q0.71875 -0.71875 1.75 -0.71875zm0 0.734375q-0.71875 0 -1.21875 0.515625q-0.484375 0.5 -0.484375 1.203125q0 0.703125 0.5 1.203125q0.5 0.5 1.203125 0.5q0.703125 0 1.203125 -0.5q0.5 -0.5 0.5 -1.203125q0 -0.703125 -0.5 -1.203125q-0.484375 -0.515625 -1.203125 -0.515625zm5.2773438 8.328125l0 -9.0l-1.546875 0l0 -1.375l1.546875 0l0 -1.09375q0 -1.046875 0.1875 -1.5625q0.25 -0.6875 0.890625 -1.109375q0.640625 -0.421875 1.796875 -0.421875q0.75 0 1.640625 0.171875l-0.265625 1.53125q-0.546875 -0.09375 -1.03125 -0.09375q-0.796875 0 -1.140625 0.34375q-0.328125 0.34375 -0.328125 1.28125l0 0.953125l2.03125 0l0 1.375l-2.03125 0l0 9.0l-1.75 0z" fill-rule="nonzero"/><path fill="#000000" fill-opacity="0.0" d="m441.49606 342.41733l739.244 0l0 42.015747l-739.244 0z" fill-rule="evenodd"/><path fill="#000000" fill-opacity="0.0" d="m548.3268 274.65353l48.75592 0l0 42.015747l-48.75592 0z" fill-rule="evenodd"/><path fill="#000000" d="m558.9518 301.57355l0 -8.40625l-1.453125 0l0 -1.265625l1.453125 0l0 -1.03125q0 -0.96875 0.171875 -1.453125q0.234375 -0.640625 0.828125 -1.03125q0.59375 -0.390625 1.671875 -0.390625q0.6875 0 1.53125 0.15625l-0.25 1.4375q-0.5 -0.09375 -0.953125 -0.09375q-0.75 0 -1.0625 0.328125q-0.3125 0.3125 -0.3125 1.1875l0 0.890625l1.890625 0l0 1.265625l-1.890625 0l0 8.40625l-1.625 0zm5.020508 -11.59375l0 -1.890625l1.765625 0l0 1.5q0 1.21875 -0.28125 1.75q-0.390625 0.75 -1.21875 1.109375l-0.40625 -0.640625q0.484375 -0.203125 0.71875 -0.625q0.25 -0.4375 0.28125 -1.203125l-0.859375 0z" fill-rule="nonzero"/><path fill="#000000" fill-opacity="0.0" d="m520.3832 302.40552l48.75592 0l0 42.015747l-48.75592 0z" fill-rule="evenodd"/><path fill="#000000" d="m530.30505 330.12238l1.59375 0.234375q0.109375 0.75 0.5625 1.078125q0.609375 0.453125 1.671875 0.453125q1.140625 0 1.75 -0.453125q0.625 -0.453125 0.84375 -1.265625q0.125 -0.5 0.109375 -2.109375q-1.0625 1.265625 -2.671875 1.265625q-2.0 0 -3.09375 -1.4375q-1.09375 -1.4375 -1.09375 -3.453125q0 -1.390625 0.5 -2.5625q0.515625 -1.171875 1.453125 -1.796875q0.953125 -0.640625 2.25 -0.640625q1.703125 0 2.8125 1.375l0 -1.15625l1.515625 0l0 8.359375q0 2.265625 -0.46875 3.203125q-0.453125 0.9375 -1.453125 1.484375q-0.984375 0.546875 -2.453125 0.546875q-1.71875 0 -2.796875 -0.78125q-1.0625 -0.765625 -1.03125 -2.34375zm1.359375 -5.8125q0 1.90625 0.75 2.78125q0.765625 0.875 1.90625 0.875q1.125 0 1.890625 -0.859375q0.765625 -0.875 0.765625 -2.734375q0 -1.78125 -0.796875 -2.671875q-0.78125 -0.90625 -1.890625 -0.90625q-1.09375 0 -1.859375 0.890625q-0.765625 0.875 -0.765625 2.625zm9.219482 -6.578125l0 -1.890625l1.765625 0l0 1.5q0 1.21875 -0.28125 1.75q-0.390625 0.75 -1.21875 1.109375l-0.40625 -0.640625q0.484375 -0.203125 0.71875 -0.625q0.25 -0.4375 0.28125 -1.203125l-0.859375 0z" fill-rule="nonzero"/><path fill="#000000" fill-opacity="0.0" d="m394.0105 365.76117l193.79529 0l0 66.2677l-193.79529 0z" fill-rule="evenodd"/><path fill="#ffffff" d="m418.5769 374.76117l18.21289 0l0 23.99997l-18.21289 0l0 -23.99997z" fill-rule="nonzero"/><path fill="#000000" d="m404.0105 394.82053l1.703125 0.25q0.109375 0.796875 0.59375 1.15625q0.65625 0.484375 1.796875 0.484375q1.21875 0 1.875 -0.484375q0.671875 -0.484375 0.90625 -1.359375q0.140625 -0.546875 0.125 -2.265625q-1.15625 1.359375 -2.875 1.359375q-2.140625 0 -3.3125 -1.546875q-1.171875 -1.546875 -1.171875 -3.703125q0 -1.484375 0.53125 -2.734375q0.546875 -1.25 1.5625 -1.9375q1.03125 -0.6875 2.40625 -0.6875q1.828125 0 3.03125 1.484375l0 -1.25l1.609375 0l0 8.96875q0 2.421875 -0.5 3.421875q-0.484375 1.015625 -1.5625 1.59375q-1.0625 0.59375 -2.625 0.59375q-1.84375 0 -3.0 -0.828125q-1.140625 -0.828125 -1.09375 -2.515625zm1.453125 -6.234375q0 2.046875 0.8125 2.984375q0.8125 0.9375 2.03125 0.9375q1.203125 0 2.015625 -0.9375q0.828125 -0.9375 0.828125 -2.921875q0 -1.90625 -0.84375 -2.875q-0.84375 -0.96875 -2.03125 -0.96875q-1.171875 0 -2.0 0.953125q-0.8125 0.953125 -0.8125 2.828125zm9.888672 -7.046875l0 -2.046875l1.875 0l0 1.609375q0 1.3125 -0.296875 1.890625q-0.421875 0.796875 -1.3125 1.1875l-0.421875 -0.6875q0.515625 -0.21875 0.765625 -0.671875q0.265625 -0.46875 0.296875 -1.28125l-0.90625 0z" fill-rule="nonzero"/><path fill="#000000" fill-opacity="0.0" d="m418.5769 375.85568l18.21289 0l0 22.998047l-18.21289 0l0 -22.998047z" fill-rule="nonzero"/><path fill="#000000" d="m422.12378 384.89865q1.015625 0 1.734375 0.71875q0.71875 0.71875 0.71875 1.734375q0 1.015625 -0.71875 1.734375q-0.71875 0.71875 -1.734375 0.71875q-1.015625 0 -1.734375 -0.71875q-0.71875 -0.71875 -0.71875 -1.734375q0 -1.015625 0.703125 -1.734375q0.71875 -0.71875 1.75 -0.71875zm0 0.734375q-0.71875 0 -1.21875 0.515625q-0.484375 0.5 -0.484375 1.203125q0 0.703125 0.5 1.203125q0.5 0.5 1.203125 0.5q0.703125 0 1.203125 -0.5q0.5 -0.5 0.5 -1.203125q0 -0.703125 -0.5 -1.203125q-0.484375 -0.515625 -1.203125 -0.515625zm4.5429688 9.1875l1.703125 0.25q0.109375 0.796875 0.59375 1.15625q0.65625 0.484375 1.796875 0.484375q1.21875 0 1.875 -0.484375q0.671875 -0.484375 0.90625 -1.359375q0.140625 -0.546875 0.125 -2.265625q-1.15625 1.359375 -2.875 1.359375q-2.140625 0 -3.3125 -1.546875q-1.171875 -1.546875 -1.171875 -3.703125q0 -1.484375 0.53125 -2.734375q0.546875 -1.25 1.5625 -1.9375q1.03125 -0.6875 2.40625 -0.6875q1.828125 0 3.03125 1.484375l0 -1.25l1.609375 0l0 8.96875q0 2.421875 -0.5 3.421875q-0.484375 1.015625 -1.5625 1.59375q-1.0625 0.59375 -2.625 0.59375q-1.84375 0 -3.0 -0.828125q-1.140625 -0.828125 -1.09375 -2.515625zm1.453125 -6.234375q0 2.046875 0.8125 2.984375q0.8125 0.9375 2.03125 0.9375q1.203125 0 2.015625 -0.9375q0.828125 -0.9375 0.828125 -2.921875q0 -1.90625 -0.84375 -2.875q-0.84375 -0.96875 -2.03125 -0.96875q-1.171875 0 -2.0 0.953125q-0.8125 0.953125 -0.8125 2.828125z" fill-rule="nonzero"/></g></svg>