<?xml version="1.0" encoding="UTF-8" standalone="no"?>
<!-- Created with Inkscape (http://www.inkscape.org/) -->

<svg
   width="100mm"
   height="100mm"
   viewBox="0 0 100 100"
   version="1.1"
   id="svg5"
   inkscape:version="1.2.1 (9c6d41e410, 2022-07-14)"
   sodipodi:docname="suspension.svg.2023_02_28_14_55_48.0.svg"
   xmlns:inkscape="http://www.inkscape.org/namespaces/inkscape"
   xmlns:sodipodi="http://sodipodi.sourceforge.net/DTD/sodipodi-0.dtd"
   xmlns="http://www.w3.org/2000/svg"
   xmlns:svg="http://www.w3.org/2000/svg">
  <sodipodi:namedview
     id="namedview7"
     pagecolor="#505050"
     bordercolor="#eeeeee"
     borderopacity="1"
     inkscape:showpageshadow="0"
     inkscape:pageopacity="0"
     inkscape:pagecheckerboard="0"
     inkscape:deskcolor="#505050"
     inkscape:document-units="mm"
     showgrid="false"
     inkscape:zoom="2.8284271"
     inkscape:cx="235.50542"
     inkscape:cy="182.15201"
     inkscape:window-width="2400"
     inkscape:window-height="1262"
     inkscape:window-x="4792"
     inkscape:window-y="-8"
     inkscape:window-maximized="1"
     inkscape:current-layer="layer1"
     inkscape:rotation="-1" />
  <defs
     id="defs2">
    <rect
       x="170.07684"
       y="284.08646"
       width="52.066736"
       height="35.562339"
       id="rect4921" />
    <inkscape:path-effect
       effect="spiro"
       id="path-effect3447"
       is_visible="true"
       lpeversion="1" />
    <inkscape:path-effect
       effect="spiro"
       id="path-effect3293"
       is_visible="true"
       lpeversion="1" />
    <inkscape:path-effect
       effect="spiro"
       id="path-effect1091"
       is_visible="true"
       lpeversion="1" />
    <inkscape:path-effect
       effect="spiro"
       id="path-effect1087"
       is_visible="true"
       lpeversion="1" />
    <inkscape:path-effect
       effect="bspline"
       id="path-effect238"
       is_visible="true"
       lpeversion="1"
       weight="33.333333"
       steps="2"
       helper_size="0"
       apply_no_weight="true"
       apply_with_weight="true"
       only_selected="false" />
    <inkscape:path-effect
       effect="spiro"
       id="path-effect3293-8"
       is_visible="true"
       lpeversion="1" />
    <inkscape:path-effect
       effect="spiro"
       id="path-effect3447-4"
       is_visible="true"
       lpeversion="1" />
    <clipPath
       id="clipPath6509">
      <path
         clip-rule="nonzero"
         d="m 7,3 h 6 V 8.300781 H 7 Z m 0,0"
         id="path9325" />
    </clipPath>
    <clipPath
       id="clipPath1377">
      <path
         clip-rule="nonzero"
         d="m 13,0 h 9.644531 V 7 H 13 Z m 0,0"
         id="path1673" />
    </clipPath>
    <clipPath
       id="clipPath2220">
      <path
         clip-rule="nonzero"
         d="m 7,3 h 6 V 8.300781 H 7 Z m 0,0"
         id="path2779" />
    </clipPath>
  </defs>
  <g
     inkscape:label="Layer 1"
     inkscape:groupmode="layer"
     id="layer1">
    <path
       style="font-variation-settings:normal;opacity:1;fill:none;fill-opacity:1;stroke:#000000;stroke-width:2;stroke-linecap:butt;stroke-linejoin:miter;stroke-miterlimit:4;stroke-dasharray:none;stroke-dashoffset:0;stroke-opacity:1;stop-color:#000000;stop-opacity:1"
       d="M 17.427057,49.186728 52.142996,10.007429 84.065696,50.937758 52.542031,91.649204 Z"
       id="path1075" />
    <path
       style="font-variation-settings:normal;opacity:1;fill:none;fill-opacity:1;stroke:#000000;stroke-width:2;stroke-linecap:butt;stroke-linejoin:miter;stroke-miterlimit:4;stroke-dasharray:2;stroke-dashoffset:0;stroke-opacity:1;stop-color:#000000;stop-opacity:1"
       d="m 18.869667,48.279147 c 8.8226,-5.807881 19.356856,-8.980128 29.919473,-9.00984 12.215836,-0.03436 24.403425,4.170356 33.999399,11.729794"
       id="path1089"
       inkscape:path-effect="#path-effect1091"
       inkscape:original-d="m 18.869667,48.279147 c 10.086753,-2.946349 19.946578,-6.006295 29.919473,-9.00984 9.972891,-3.003545 22.666531,7.820125 33.999399,11.729794" />
    <path
       style="font-variation-settings:normal;opacity:1;fill:none;fill-opacity:1;stroke:#ff0000;stroke-width:2;stroke-linecap:butt;stroke-linejoin:miter;stroke-miterlimit:4;stroke-dasharray:none;stroke-dashoffset:0;stroke-opacity:1;stop-color:#000000;stop-opacity:1"
       d="m 28.729492,37.90933 c 5.95856,5.491633 13.841644,8.852637 21.929614,9.349835 8.671522,0.533071 17.505996,-2.247008 24.30957,-7.649863"
       id="path3291"
       inkscape:path-effect="#path-effect3293"
       inkscape:original-d="m 28.729492,37.90933 c 7.25347,3.060211 14.620007,6.233488 21.929614,9.349835 7.309607,3.116347 16.206645,-5.099645 24.30957,-7.649863" />
    <path
       style="opacity:0.2;fill:#ff0000;stroke:#000000;stroke-width:4.85676;stroke-dasharray:none;stroke-dashoffset:0"
       d=""
       id="path3441"
       transform="scale(0.26458333)" />
    <path
       style="font-variation-settings:normal;opacity:1;fill:none;fill-opacity:1;stroke:#ff0000;stroke-width:2;stroke-linecap:butt;stroke-linejoin:miter;stroke-miterlimit:4;stroke-dasharray:0;stroke-dashoffset:0;stroke-opacity:1;stop-color:#000000;stop-opacity:1"
       d="m 28.729492,37.739333 c 5.532179,-5.450982 13.148101,-8.73264 20.909632,-9.009841 8.981476,-0.320771 18.029906,3.438787 24.139575,10.029823"
       id="path3445"
       inkscape:path-effect="#path-effect3447"
       inkscape:original-d="m 28.729492,37.739333 c 6.970141,-2.889684 13.94002,-6.006296 20.909632,-9.009841 6.969612,-3.003544 16.093313,6.686815 24.139575,10.029823"
       inkscape:label="dashedLineA" />
    <path
       style="font-variation-settings:normal;fill:none;fill-opacity:1;stroke:#0000ff;stroke-width:2;stroke-linecap:butt;stroke-linejoin:miter;stroke-miterlimit:4;stroke-dasharray:none;stroke-dashoffset:0;stroke-opacity:1;stop-color:#000000"
       d="m 28.427329,62.620631 c 5.95856,5.491633 13.841644,8.852637 21.929614,9.349835 8.671522,0.533071 17.505996,-2.247008 24.30957,-7.649863"
       id="path3291-4"
       inkscape:path-effect="#path-effect3293-8"
       inkscape:original-d="m 28.427329,62.620631 c 7.25347,3.060211 14.620007,6.233488 21.929614,9.349835 7.309607,3.116347 16.206645,-5.099645 24.30957,-7.649863" />
    <path
       style="font-variation-settings:normal;display:inline;fill:none;fill-opacity:1;stroke:#0000ff;stroke-width:2;stroke-linecap:butt;stroke-linejoin:miter;stroke-miterlimit:4;stroke-dasharray:2;stroke-dashoffset:0;stroke-opacity:1;stop-color:#000000"
       d="m 28.427329,62.450634 c 5.532179,-5.450982 13.148101,-8.73264 20.909632,-9.009841 8.981476,-0.320771 18.029906,3.438787 24.139575,10.029823"
       id="path3445-0"
       inkscape:path-effect="#path-effect3447-4"
       inkscape:original-d="m 28.427329,62.450634 c 6.970141,-2.889684 13.94002,-6.006296 20.909632,-9.009841 6.969612,-3.003544 16.093313,6.686815 24.139575,10.029823" />
    <path
       style="font-variation-settings:normal;opacity:1;fill:none;fill-opacity:1;stroke:#000000;stroke-width:2;stroke-linecap:butt;stroke-linejoin:miter;stroke-miterlimit:4;stroke-dasharray:none;stroke-dashoffset:0;stroke-opacity:1;stop-color:#000000;stop-opacity:1"
       d="m 18.69967,49.469127 c 9.621093,5.437518 20.573349,8.499439 31.619441,8.839843 11.371677,0.350438 22.820838,-2.187262 32.979418,-7.309869"
       id="middleSeamX"
       inkscape:path-effect="#path-effect1087"
       inkscape:original-d="m 18.69967,49.469127 c 10.540079,2.946879 21.079891,5.893493 31.619441,8.839843 10.53955,2.946352 21.986544,-4.872982 32.979418,-7.309869" />
    <path
       style="opacity:0.2;fill:#0000ff;stroke:#0000ff;stroke-width:3.77953;stroke-dasharray:3.77953;stroke-dashoffset:0"
       d="m 182,215.94304 c -8.85189,-0.58539 -21.04207,-2.04349 -27.07819,-3.2389 -0.88232,-0.17473 -1.43274,-0.6796 -1.63964,-1.50395 -0.17129,-0.68251 -0.7684,-2.46223 -1.32689,-3.95494 l -1.01544,-2.71401 -3.34435,1.2588 c -4.07904,1.53535 -4.26231,1.70609 -3.62645,3.37854 0.3796,0.99842 0.35107,1.33142 -0.11406,1.33142 -0.34115,0 -4.21683,-0.91259 -8.61263,-2.02797 -9.97258,-2.53042 -26.35777,-7.97881 -35.24235,-11.71876 -7.153474,-3.01125 -22.097356,-10.195 -23.708986,-11.39728 -0.907693,-0.67713 -0.833299,-0.78906 1.390869,-2.09251 l 2.349854,-1.3771 -1.021687,-1.73163 -1.021688,-1.73164 2.349543,-2.75017 2.349543,-2.75016 0.88898,1.16361 c 0.488939,0.63998 1.14906,1.78236 1.466936,2.53861 0.317876,0.75625 0.784623,1.375 1.037215,1.375 0.523775,0 4.120859,-1.78604 5.777373,-2.8686 l 1.107952,-0.72407 -1.753001,-3.481 c -1.514853,-3.00809 -1.895205,-3.43586 -2.799755,-3.14876 -0.95387,0.30274 -0.985367,0.24667 -0.354951,-0.63194 0.380491,-0.53029 4.593227,-5.36807 9.361634,-10.75063 l 8.669829,-9.78646 5.46218,4.54633 5.46217,4.54634 -3.382,1.2073 c -1.86011,0.66401 -3.42776,1.24574 -3.48367,1.29272 -0.13377,0.1124 2.3581,6.97188 2.63232,7.24609 0.3983,0.39831 7.21934,-2.17321 7.21934,-2.72167 0,-0.30113 -0.36281,-1.61229 -0.80623,-2.91368 -0.44343,-1.30139 -0.69998,-2.47243 -0.57011,-2.6023 0.12987,-0.12987 2.91143,1.47848 6.18123,3.57412 19.75469,12.6609 42.11421,19.99278 66.44511,21.78793 21.22517,1.56601 46.18053,-3.13741 66.47519,-12.52879 3.88325,-1.79698 4.67108,-2.00262 5.95608,-1.55466 0.81449,0.28393 1.51807,0.45897 1.56351,0.38898 0.0455,-0.07 0.35153,-0.80483 0.68018,-1.63298 0.43747,-1.10236 1.76657,-2.19994 4.9613,-4.09709 2.40005,-1.42524 6.15465,-3.83925 8.34355,-5.36446 2.18889,-1.52521 4.13841,-2.60652 4.33226,-2.40291 2.47595,2.60058 18.88798,24.38684 18.47483,24.52455 -0.61613,0.20538 -4.54325,5.79539 -4.5265,6.4432 0.006,0.22134 1.43969,1.34119 3.18659,2.48856 l 3.17619,2.08613 1.74159,-2.49876 1.74159,-2.49876 1.63209,2.06069 c 0.89766,1.13338 1.53383,2.15897 1.41371,2.27908 -0.65772,0.65772 -12.16605,5.76693 -19.11687,8.48709 -13.48396,5.27684 -28.27299,9.65054 -42.22905,12.48878 -7.68717,1.56334 -8.26593,1.58569 -7.57383,0.2925 0.28467,-0.53192 0.51759,-1.28365 0.51759,-1.67051 0,-0.73027 -6.78042,-3.74861 -7.28575,-3.24329 -0.15414,0.15415 -0.92293,1.93417 -1.7084,3.9556 l -1.42814,3.67533 -4.98711,0.59184 c -13.0487,1.54855 -31.08904,1.99407 -44.5906,1.1012 z m 44.47882,-7.87195 c 0.56165,-1.8859 1.02118,-3.65058 1.02118,-3.92152 0,-0.6123 -7.12788,-2.73815 -7.55306,-2.25265 -0.36319,0.41471 -2.05778,7.17075 -1.84314,7.34826 0.16987,0.14048 6.47389,2.12359 7.00002,2.20205 0.19461,0.029 0.81336,-1.49024 1.375,-3.37614 z m -61.60382,0.86032 c 1.44375,-0.3248 2.625,-0.85471 2.625,-1.17759 0,-1.19397 -1.15282,-6.51722 -1.49502,-6.90336 -0.35641,-0.40219 -6.92545,0.99563 -7.63655,1.62497 -0.20985,0.18573 -0.16461,0.99849 0.10056,1.80613 0.26516,0.80764 0.73282,2.44708 1.03923,3.64321 0.48399,1.88926 0.70053,2.13686 1.64945,1.88597 0.60078,-0.15883 2.27358,-0.55453 3.71733,-0.87933 z m 47.0674,-4.72484 c 0.35058,-2.08638 0.51587,-3.91496 0.36733,-4.06351 -0.38782,-0.38782 -4.2779,-1.09568 -6.16208,-1.12129 -1.75469,-0.0239 -1.96817,0.49129 -2.26444,5.46418 l -0.13321,2.23594 3.5,0.57149 c 1.925,0.31432 3.62487,0.60189 3.7775,0.63905 0.15262,0.0371 0.56433,-1.63947 0.9149,-3.72586 z M 180.56978,206.5 c 1.37804,0 1.43022,-0.0889 1.43022,-2.4375 0,-1.34063 -0.14063,-3.14063 -0.3125,-4 -0.34656,-1.73278 -1.12344,-1.89482 -5.92761,-1.23633 l -2.37967,0.32617 0.32649,2.77794 c 0.61241,5.2106 0.62428,5.22881 3.18196,4.87824 1.238,-0.16969 2.8945,-0.30852 3.68111,-0.30852 z m 16.32625,-4.625 0.14603,-3.875 H 193.02103 189 v 4.02103 4.02103 l 3.875,-0.14603 3.875,-0.14603 z m 96.37636,-22.12628 c 2.62341,-4.10105 2.65142,-3.92565 -0.94819,-5.93866 -1.78018,-0.99553 -3.42513,-1.80976 -3.65544,-1.80939 -0.62438,10e-4 -3.94915,6.38561 -3.53892,6.79584 0.55295,0.55295 5.57593,3.61941 6.00137,3.66375 0.20966,0.0219 1.1732,-1.19834 2.14118,-2.71154 z m -13.02868,-7.73624 C 281.20967,170.09435 282,168.41009 282,168.26968 282,167.89197 276.13728,165 275.37157,165 c -0.52408,0 -3.87157,5.83849 -3.87157,6.75257 0,0.18038 6.33003,3.61125 6.86871,3.72284 0.0653,0.0135 0.90904,-1.54479 1.875,-3.46293 z M 102.70339,170.02091 C 104.51653,169.20741 106,168.30978 106,168.02617 106,167.37487 103.46067,161 103.20123,161 c -0.10584,0 -1.77431,0.70732 -3.70773,1.57182 -2.958707,1.32294 -3.466497,1.72558 -3.207073,2.54295 0.437147,1.37733 2.753653,6.38523 2.953618,6.38523 0.09171,0 1.650215,-0.66559 3.463345,-1.47909 z"
       id="path4372"
       transform="scale(0.26458333)" />
    <path
       style="display:inline;opacity:0.2;fill:#0000ff;stroke:#0000ff;stroke-width:3.77953;stroke-dasharray:3.77953;stroke-dashoffset:0"
       d="m 182.5,267.24334 c -14.75865,-1.97511 -28.10831,-6.07146 -41.96109,-12.87579 -7.42034,-3.64479 -18.25768,-10.53426 -24.18157,-15.37261 l -3.36081,-2.74494 1.25173,-1.01878 c 0.68846,-0.56033 1.24458,-1.23533 1.23583,-1.5 -0.009,-0.26467 -1.09945,-1.70222 -2.42377,-3.19455 l -2.40786,-2.71333 -1.52754,1.0877 -1.52753,1.08771 -13.521682,-16.35972 c -7.436922,-8.99785 -13.464016,-16.41739 -13.393541,-16.48787 0.07048,-0.0705 3.377069,1.35673 7.347985,3.17157 11.654944,5.32668 26.575348,10.83183 39.077778,14.41844 2.70033,0.77465 2.94672,0.98138 4.46809,3.74875 l 1.61017,2.92889 3.37821,-1.70125 3.37822,-1.70124 6.15369,1.25377 c 7.30061,1.48745 20.87191,3.47018 28.90369,4.22274 19.63231,1.83952 46.21709,0.83785 65.46057,-2.46643 l 5.21057,-0.8947 2.87356,1.68415 c 1.58046,0.92628 2.99754,1.68415 3.14907,1.68415 0.15152,0 1.03478,-1.18125 1.96278,-2.625 l 1.68729,-2.625 7.70308,-1.93397 c 12.23389,-3.07148 27.00149,-8.13142 41.39784,-14.18444 1.07476,-0.45189 0.75225,-0.0114 -12.66692,17.29984 l -12.47216,16.08959 -2.40957,-2.37335 -2.40957,-2.37334 -2.85698,2.85698 -2.85697,2.85697 2.69816,2.73211 2.69817,2.7321 -1.40015,2.02042 c -1.56431,2.25729 -5.35456,4.80438 -13.51877,9.08475 -12.80277,6.71229 -25.35847,10.9148 -40.28446,13.48357 -8.08874,1.39207 -28.38921,1.78294 -36.46554,0.70211 z m 83.72253,-38.03917 c 1.25261,-1.53771 2.27747,-2.97812 2.27747,-3.20091 0,-0.22279 -1.39567,-1.44221 -3.10149,-2.70983 -3.46157,-2.57234 -3.06742,-2.67223 -6.07696,1.54009 l -1.84582,2.58352 2.88713,2.26789 c 1.58793,1.24735 3.04353,2.27851 3.23467,2.29148 0.19114,0.013 1.37239,-1.23454 2.625,-2.77224 z M 126.58652,225.6306 c 0.77051,-0.65944 0.6809,-0.95671 -1.13563,-3.76723 -1.08468,-1.67821 -2.07974,-3.15889 -2.21125,-3.2904 -0.31974,-0.31974 -6.73964,4.05277 -6.73964,4.59028 0,0.23166 1.03956,1.74439 2.31013,3.36163 l 2.31013,2.94042 2.31487,-1.55938 c 1.27318,-0.85766 2.6913,-1.88155 3.15139,-2.27532 z"
       id="path4374"
       transform="scale(0.26458333)" />
    <path
       style="display:inline;opacity:0.2;fill:#0000ff;stroke:#0000ff;stroke-width:3.77953;stroke-dasharray:3.77953;stroke-dashoffset:0"
       d="m 190.45858,174.5076 c -18.35648,-1.43561 -38.02035,-7.2453 -53.13814,-15.69965 -2.9493,-1.64934 -3.34707,-2.05891 -3.83527,-3.94907 -1.07736,-4.17122 -0.69813,-3.8658 -3.72936,-3.0035 l -2.70414,0.76927 -3.40084,-2.39492 c -1.87045,-1.3172 -4.63833,-3.41404 -6.15083,-4.65964 -1.5125,-1.2456 -2.8461,-2.33578 -2.96355,-2.42263 -0.11745,-0.0868 0.39118,-0.78909 1.13029,-1.56055 l 1.34383,-1.40267 -1.25528,-1.17928 c -0.69041,-0.6486 -1.25529,-1.34072 -1.25529,-1.53804 0,-0.19732 1.03981,-1.51529 2.31069,-2.92882 l 2.3107,-2.57004 1.48256,2.01597 c 0.81541,1.10878 1.57507,2.01597 1.68815,2.01597 0.19716,0 5.02007,-3.30706 5.86813,-4.02377 0.22562,-0.19067 -0.40783,-1.6255 -1.40766,-3.18849 -0.99984,-1.56299 -1.74694,-3.05119 -1.66023,-3.30709 0.24508,-0.72328 71.4494,-80.983358 71.82486,-80.959533 0.25349,0.01609 43.84373,55.705353 63.0103,80.499613 l 2.67751,3.46367 -1.80251,2.50896 c -0.99137,1.37992 -1.8025,2.7064 -1.8025,2.94772 0,0.47065 5.21658,4.55892 5.81713,4.55892 0.19802,0 0.97323,-0.73125 1.72268,-1.625 0.74945,-0.89375 1.45524,-1.5125 1.56841,-1.375 2.38184,2.89378 3.89178,4.93816 3.89178,5.26927 0,0.22895 -0.44668,0.89174 -0.99262,1.47287 l -0.99262,1.0566 2.72654,2.69267 c 2.61847,2.58595 2.76437,2.65844 3.68084,1.82904 0.89981,-0.81431 0.97307,-0.81471 1.28301,-0.007 0.1808,0.47114 0.14594,0.9871 -0.0774,1.14659 -6.97844,4.98217 -15.49161,10.16867 -16.2668,9.91027 -0.28287,-0.0943 -0.98604,0.29859 -1.56261,0.87306 -2.57986,2.57051 -21.52241,9.58111 -32.29829,11.95355 -11.56958,2.54718 -26.20809,3.65794 -37.04142,2.8107 z m 62.20301,-14.73122 1.25196,-3.72362 -3.33178,-1.09954 c -1.83247,-0.60475 -3.58685,-1.19315 -3.8986,-1.30756 -0.48148,-0.17668 -2.68317,5.7401 -2.68317,7.21068 0,0.41152 5.46286,2.48928 6.82982,2.59768 0.3189,0.0253 1.14319,-1.62965 1.83177,-3.67764 z m -14.45926,-4.46352 c 0.46203,-1.89043 0.7383,-3.5389 0.61393,-3.66327 -0.25614,-0.25613 -7.48709,-2.15996 -7.60378,-2.00199 -0.2807,0.37998 -1.67732,7.55423 -1.50428,7.72726 0.46047,0.46047 7.05842,1.96959 7.34793,1.68065 0.16837,-0.16803 0.68416,-1.85222 1.1462,-3.74265 z m -92.37875,1.09956 3.18887,-0.58757 -0.27465,-1.53743 c -0.15106,-0.84558 -0.44651,-2.54992 -0.65657,-3.78742 l -0.38192,-2.25 -2.03458,0.0882 c -1.11901,0.0485 -2.97529,0.34152 -4.12506,0.65111 -1.59763,0.4302 -2.03367,0.76305 -1.84951,1.4118 0.13253,0.46689 0.49742,2.14264 0.81085,3.72389 0.64038,3.23061 0.50933,3.1743 5.32257,2.28742 z m 77.50973,-3.66544 c 0.98323,-4.7295 1.05689,-4.57638 -2.49927,-5.19566 -4.85277,-0.84507 -4.66396,-0.93852 -5.28272,2.61463 -0.83955,4.82111 -0.93274,4.63285 2.57368,5.19963 4.54448,0.73457 4.50733,0.75325 5.20831,-2.6186 z m -60.92159,0.90254 c 1.12935,-0.26866 1.15203,-0.38255 0.81419,-4.08794 -0.19113,-2.09637 -0.38353,-3.8562 -0.42754,-3.91074 -0.12679,-0.15712 -7.52763,0.91406 -7.73422,1.11944 -0.10222,0.10161 -0.0246,1.90562 0.1725,4.00891 l 0.35835,3.82416 2.8275,-0.33874 c 1.55513,-0.1863 3.35027,-0.4631 3.98922,-0.61509 z m 45.81717,-2.27452 c 0.15959,-1.16875 0.34213,-2.90978 0.40564,-3.86896 l 0.11547,-1.74396 -3.9429,-0.39648 c -2.16859,-0.21806 -4.00031,-0.33328 -4.07048,-0.25604 -0.0702,0.0772 -0.21224,1.8743 -0.31571,3.99346 -0.21377,4.37815 -0.45456,4.16676 4.92345,4.32206 l 2.59436,0.0749 z m -32.80224,1.30377 3.07335,-0.32123 -0.006,-2.05377 c -0.003,-1.12958 -0.1495,-2.92548 -0.3255,-3.9909 l -0.32,-1.93712 -3.78907,0.34336 c -2.08398,0.18884 -3.87077,0.42506 -3.97064,0.52493 -0.0999,0.0999 -0.0219,1.88582 0.17331,3.96877 0.39796,4.24685 0.0335,4.00221 5.16406,3.46596 z m 17.76985,-0.96967 c 0.16693,-0.43499 0.3035,-2.23499 0.3035,-4 V 144.5 h -4 -4 v 4 4 h 3.6965 c 2.90949,0 3.76113,-0.16839 4,-0.7909 z m 61.92992,-24.70639 c 1.03047,-1.6485 1.86927,-3.16725 1.864,-3.375 -0.0161,-0.63656 -6.47289,-4.19757 -7.00956,-3.86589 -1.01251,0.62577 -3.56999,6.34905 -3.06345,6.85559 0.72429,0.72429 5.24863,3.32799 5.83401,3.3574 0.27578,0.0139 1.34453,-1.32359 2.375,-2.9721 z M 137.79376,126.20696 C 139.55719,125.2208 141,124.20188 141,123.94271 141,123.02182 137.97703,117.5 137.47288,117.5 c -0.56993,0 -4.10474,1.74055 -5.8463,2.87874 l -1.12343,0.7342 1.87343,3.44018 c 1.03038,1.89211 1.94936,3.44169 2.04218,3.44353 0.0928,0.002 1.61156,-0.80352 3.375,-1.78969 z m 104.10172,-6.54723 c 0.85357,-1.83715 1.46275,-3.4846 1.35373,-3.66101 -0.25506,-0.41269 -7.25955,-3.1677 -7.44671,-2.92894 -0.34632,0.4418 -2.83167,7.0675 -2.69982,7.19745 0.437,0.43074 5.7665,2.65696 6.44408,2.6918 0.51187,0.0263 1.35168,-1.15339 2.34872,-3.2993 z m -90.02048,0.2223 c 1.44375,-0.56145 2.62505,-1.27084 2.6251,-1.57642 2.5e-4,-1.34091 -2.30056,-6.80561 -2.86537,-6.80561 -0.63876,0 -7.13473,2.49661 -7.13473,2.74211 0,0.0747 0.3375,0.95074 0.75,1.94683 0.4125,0.99608 1.08627,2.6231 1.49727,3.6156 0.58165,1.40456 0.94183,1.72627 1.625,1.45142 0.48275,-0.19421 2.05898,-0.81248 3.50273,-1.37393 z m 75.95536,-5.82465 c 0.79596,-2.61746 0.93664,-3.67732 0.50958,-3.83898 -0.32447,-0.12281 -2.10461,-0.65515 -3.95587,-1.18297 l -3.36593,-0.95966 -0.54108,2.08711 c -0.29759,1.14792 -0.74558,2.86197 -0.99552,3.809 -0.24994,0.94704 -0.37526,1.80107 -0.27849,1.89784 0.32714,0.32714 6.54304,2.01157 7.03737,1.90704 0.26973,-0.057 0.9852,-1.73076 1.58994,-3.71938 z m -62.13907,1.65217 3.1468,-0.79046 -0.74512,-3.83454 c -0.40981,-2.10901 -0.79773,-3.90265 -0.86205,-3.98589 -0.13218,-0.17107 -7.74512,1.73106 -7.95011,1.98637 -0.0728,0.0907 0.318,1.79622 0.86855,3.78997 0.63177,2.28784 1.25813,3.625 1.69807,3.625 0.38338,0 2.11311,-0.35571 3.84386,-0.79045 z m 47.25738,-4.37551 c 0.90768,-5.21229 1.10599,-4.96629 -4.53825,-5.62966 l -2.79779,-0.32883 -0.3423,3.18723 c -0.18826,1.75297 -0.44235,3.54502 -0.56465,3.98233 -0.21092,0.75419 1.02059,1.07938 7.11799,1.8796 0.33096,0.0434 0.80693,-1.26418 1.125,-3.09067 z m -32.57367,1.84197 2.625,-0.3153 v -3.93036 c 0,-4.48652 0.40644,-4.2188 -5.47204,-3.60438 l -3.11872,0.32597 0.32062,2.29903 c 0.73563,5.27496 0.83212,5.54923 1.95078,5.54468 0.58815,-0.002 2.25061,-0.14623 3.69436,-0.31964 z M 198,110.0625 c 0,-1.34063 0.14062,-3.14063 0.3125,-4 L 198.625,104.5 H 194.3125 190 v 4 4 h 4 4 z"
       id="path4376"
       transform="scale(0.26458333)" />
    <path
       style="display:inline;opacity:0.2;fill:#0000ff;stroke:#2b0000;stroke-width:3.77953;stroke-dasharray:none;stroke-dashoffset:0"
       d="m 241.5,209.15793 c -2.6125,-1.24283 -7.225,-3.13649 -10.25,-4.20813 -5.32042,-1.88481 -18.67548,-5.31581 -22.25,-5.71617 -8.98645,-1.0065 -12.42545,-1.23122 -18.6053,-1.2158 -10.15543,0.0254 -15.15133,0.58986 -28.1447,3.18017 -3.99026,0.79548 -14.70525,4.3723 -19.25,6.42594 -3.44194,1.5553 -5.70859,1.83479 -7.42599,0.91567 -0.57591,-0.30822 -2.23441,-0.78383 -3.68556,-1.05691 -1.45115,-0.27308 -3.36895,-0.84111 -4.26179,-1.26228 -0.89283,-0.42117 -2.42764,-0.86873 -3.41068,-0.9946 -0.98304,-0.12586 -2.27754,-0.49432 -2.87666,-0.8188 -0.59913,-0.32448 -2.43932,-0.983 -4.08932,-1.46338 -1.65,-0.48038 -4.9125,-1.58454 -7.25,-2.45369 -2.3375,-0.86915 -5.45608,-2.02103 -6.93017,-2.55973 -1.47409,-0.53871 -3.161594,-1.28081 -3.75,-1.64912 -0.588407,-0.36831 -1.96983,-0.95291 -3.06983,-1.29912 -1.1,-0.34621 -3.2375,-1.32451 -4.75,-2.174 -1.5125,-0.84949 -2.815901,-1.46801 -2.896447,-1.37448 C 88.347342,191.73101 85.5,190.39577 85.5,189.97812 c 0,-0.22031 -0.84375,-0.6731 -1.875,-1.0062 -2.808771,-0.90724 -7.196169,-3.43543 -7.489629,-4.31581 -0.100966,-0.3029 0.721466,-0.96819 1.827627,-1.47842 2.306738,-1.06401 2.442377,-1.52748 0.9881,-3.37629 l -1.048901,-1.33347 2.126123,-2.35896 c 1.169368,-1.29744 2.298724,-2.55507 2.50968,-2.79475 0.210956,-0.23968 0.967497,0.71657 1.681201,2.125 0.713705,1.40843 1.523588,2.56078 1.799742,2.56078 0.73255,0 6.985767,-3.10603 6.95479,-3.45451 -0.01445,-0.16252 -0.745697,-1.75799 -1.625,-3.54549 -1.359844,-2.76437 -1.776704,-3.23046 -2.789775,-3.11919 -1.313379,0.14424 -1.228837,-0.0249 1.441042,-2.88354 0.6875,-0.7361 2.375,-2.64603 3.75,-4.24428 C 97.790921,156.05597 106.07728,147 106.33422,147 c 0.26779,0 4.66495,3.70655 8.10097,6.82864 l 2.28765,2.07864 -2.73642,0.8039 c -3.83672,1.12714 -4.37841,1.52909 -3.64851,2.70738 0.32335,0.522 0.82954,1.82261 1.12487,2.89026 0.96756,3.49788 1.02414,3.52214 5.03259,2.1576 3.34204,-1.13768 3.55472,-1.29733 3.28561,-2.46642 -0.15826,-0.6875 -0.43188,-2.00418 -0.60805,-2.92595 l -0.32031,-1.67594 1.69869,0.86814 c 0.93428,0.47747 2.37188,1.34415 3.19467,1.92594 2.85003,2.01525 10.02848,6.08286 15.33202,8.68776 14.04983,6.90075 30.10101,11.48432 46.672,13.32764 7.91755,0.88073 24.79477,0.65129 31.75,-0.43163 15.39424,-2.39687 31.55379,-7.1465 41.22069,-12.11563 1.92368,-0.98884 2.92719,-1.20745 4.53259,-0.98741 1.99665,0.27367 2.08211,0.22675 2.70021,-1.48258 0.35107,-0.97087 0.75264,-1.65087 0.89239,-1.51113 0.13974,0.13975 1.68118,-0.74341 3.42541,-1.96256 1.74424,-1.21916 3.28235,-2.21665 3.41802,-2.21665 0.2684,0 8.19849,-5.17657 9.13647,-5.96407 0.53676,-0.45064 2.91654,2.28054 7.06632,8.10975 0.62816,0.88238 1.65165,2.16682 2.27444,2.85432 0.62278,0.6875 1.87923,2.375 2.79211,3.75 0.91288,1.375 1.97222,2.68082 2.35408,2.90181 0.38187,0.221 1.14258,1.28052 1.69048,2.35448 0.5479,1.07397 1.61276,2.52441 2.36637,3.22319 0.75361,0.69879 1.10363,1.27052 0.77783,1.27052 -0.6608,0 -4.65621,5.35349 -4.63195,6.2064 0.0196,0.69038 3.86255,3.56282 5.38865,4.02782 1.26852,0.38651 2.80282,-0.95112 3.67108,-3.20052 l 0.46948,-1.2163 1.17631,1.2163 c 2.39623,2.4777 2.1708,3.18479 -1.58,4.95571 -1.86504,0.88057 -4.25092,2.04672 -5.30196,2.59145 -1.05104,0.54473 -2.35699,1.07631 -2.90211,1.18129 -0.54511,0.10498 -2.20249,0.76394 -3.68305,1.46436 -1.48057,0.70042 -2.9242,1.27349 -3.20808,1.27349 -0.28388,0 -1.7904,0.58285 -3.34781,1.29523 -1.55742,0.71238 -3.40064,1.39841 -4.09605,1.52451 -0.69541,0.1261 -2.20872,0.65947 -3.3629,1.18526 -1.15418,0.52579 -2.80479,1.08041 -3.66801,1.23249 -0.86323,0.15208 -2.63859,0.69255 -3.94526,1.20106 -1.30666,0.5085 -3.27575,1.08799 -4.37575,1.28774 -1.1,0.19976 -2.225,0.54833 -2.5,0.7746 -0.275,0.22627 -1.9566,0.67517 -3.7369,0.99755 -1.78029,0.32238 -3.58788,0.77399 -4.01687,1.00357 -0.42899,0.22959 -1.78489,0.56297 -3.01311,0.74085 -1.22822,0.17788 -3.19724,0.64601 -4.3756,1.04028 -3.1768,1.06294 -4.38735,0.85816 -9.60752,-1.62521 z M 292.0879,181.625 c 1.38144,-1.62709 3.46437,-5.63591 3.17317,-6.10708 C 294.92922,174.98097 289.20547,172 288.50634,172 c -0.25507,0 -1.19219,1.46365 -2.0825,3.25255 -1.82651,3.67003 -1.83961,3.63097 1.93871,5.78132 2.93929,1.67284 2.82267,1.65433 3.72535,0.59113 z m -11.68689,-9.8583 c 1.35205,-2.80806 1.53312,-3.54408 1,-4.06469 C 280.77064,167.08644 275.87499,165 275.061,165 c -0.22109,0 -1.12907,1.4912 -2.01772,3.31377 -1.13079,2.31918 -1.4578,3.47171 -1.08953,3.83998 0.75457,0.75457 5.70195,3.20244 6.29625,3.11526 0.275,-0.0403 1.24295,-1.61638 2.15101,-3.50231 z M 102.98505,169.96791 C 104.64327,169.12526 106,168.10864 106,167.70875 106,166.65847 103.40643,161 102.92504,161 102.07186,161 96,164.23784 96,164.6928 c 0,0.87164 3.075112,6.8072 3.526692,6.8072 0.24387,0 1.800128,-0.68944 3.458358,-1.53209 z"
       id="path4447"
       transform="scale(0.26458333)" />
    <path
       style="display:inline;opacity:0.2;fill:#0000ff;stroke:#2b0000;stroke-width:3.77953;stroke-dasharray:none;stroke-dashoffset:0"
       d="m 106.16615,228.12218 c -0.75923,-1.0297 -2.17597,-2.79021 -3.14829,-3.91226 -3.734878,-4.30997 -6.295291,-7.39424 -6.978913,-8.40676 -0.391078,-0.57924 -1.628578,-2.09194 -2.75,-3.36156 C 92.167526,211.17197 90.125,208.728 88.75,207.01054 c -1.375,-1.71745 -3.454993,-4.16617 -4.622206,-5.44159 -3.589302,-3.92206 -2.901698,-4.36222 2.747206,-1.75861 2.68125,1.2358 5.2125,2.42547 5.625,2.6437 0.895353,0.47369 8.35072,3.45233 13.25,5.29377 4.06782,1.52893 16.99421,5.83248 20.19062,6.72202 l 2.19062,0.60963 -4.19062,2.6404 c -2.30484,1.45222 -4.58437,3.00934 -5.06562,3.46027 -0.48125,0.45093 -0.87845,0.65112 -0.88266,0.44487 -0.004,-0.20625 -0.17296,-0.14844 -0.375,0.12847 -0.20204,0.2769 -2.55061,2.24439 -5.21905,4.37218 l -4.8517,3.86871 z"
       id="path4455"
       transform="scale(0.26458333)" />
    <path
       style="display:inline;opacity:0.2;fill:#0000ff;stroke:#2b0000;stroke-width:3.77953;stroke-dasharray:none;stroke-dashoffset:0"
       d="m 191,174.39664 c -7.48565,-0.57179 -18.07545,-2.13425 -19.44956,-2.86965 -0.52693,-0.282 -2.02687,-0.64104 -3.33319,-0.79785 -1.30633,-0.15681 -2.95836,-0.58265 -3.67119,-0.94632 -0.71284,-0.36366 -2.51821,-0.91997 -4.01196,-1.23623 -1.49374,-0.31626 -2.95624,-0.77067 -3.25,-1.00979 -0.29375,-0.23913 -1.6591,-0.77375 -3.0341,-1.18806 -5.002,-1.50717 -17.15848,-7.39497 -19.19372,-9.29617 -1.0208,-0.95356 -1.63338,-2.10864 -1.85572,-3.4991 -0.18255,-1.1416 -0.53689,-2.20232 -0.78742,-2.35715 -0.25052,-0.15484 -1.54879,0.11162 -2.88504,0.59213 l -2.42953,0.87365 -1.92428,-1.4994 c -1.05836,-0.82466 -2.65554,-1.92215 -3.54929,-2.43885 -0.89375,-0.5167 -1.625,-1.07781 -1.625,-1.2469 0,-0.24909 -2.84056,-2.47663 -5.16664,-4.05162 -0.26444,-0.17905 0.13034,-0.93449 0.88023,-1.68438 l 1.35972,-1.35972 -1.34615,-1.40508 -1.34615,-1.40507 2.3961,-2.77541 2.39611,-2.7754 0.83236,1.36486 c 0.4578,0.75068 1.21054,1.67717 1.67277,2.05887 0.7225,0.59665 0.96737,0.57911 1.7454,-0.125 0.49774,-0.45045 1.11227,-0.82506 1.36562,-0.83245 0.25335,-0.007 1.20175,-0.62841 2.10756,-1.38002 l 1.64693,-1.36657 -1.51287,-2.74498 c -0.83208,-1.50974 -1.51695,-3.06074 -1.52193,-3.44667 -0.005,-0.38593 1.13275,-1.96093 2.52829,-3.5 1.39554,-1.53907 3.52812,-3.92331 4.73907,-5.29831 1.21095,-1.375 4.69948,-5.3125 7.75228,-8.75 3.05281,-3.4375 6.48897,-7.33404 7.63593,-8.65897 1.14695,-1.324935 3.12753,-3.574935 4.40128,-5 4.33177,-4.846369 12.9629,-14.582419 15.1514,-17.09103 1.19955,-1.375 4.69226,-5.3125 7.76157,-8.75 3.06932,-3.4375 6.57709,-7.375 7.79506,-8.75 4.93295,-5.568963 6.75913,-7.603086 8.75329,-9.75 1.14945,-1.2375 2.65276,-2.98125 3.34068,-3.875 1.44046,-1.871443 1.94221,-2.010919 2.37125,-0.659156 0.1686,0.531214 1.30636,2.049964 2.52836,3.375 1.222,1.325036 2.22421,2.582933 2.22714,2.795327 0.003,0.212395 0.85984,1.337395 1.90423,2.5 1.04439,1.162606 2.25661,2.686077 2.69382,3.385491 0.43721,0.699415 1.59307,2.161915 2.56858,3.25 0.97551,1.088086 2.29454,2.695706 2.93118,3.572488 0.63664,0.876783 2.50753,3.333839 4.15753,5.460125 1.65,2.126286 3.76787,4.896418 4.70638,6.155849 0.9385,1.259432 1.91248,2.426607 2.16438,2.593723 0.2519,0.167116 1.28403,1.443876 2.29362,2.837245 1.76793,2.439974 6.21301,8.188068 9.33562,12.072205 2.62843,3.269443 7.43845,9.527273 9.33562,12.145613 1.00959,1.39336 2.04172,2.67012 2.29362,2.83724 0.2519,0.16712 1.22587,1.33925 2.16438,2.60475 0.93851,1.26549 3.05638,4.04384 4.70638,6.17411 1.65,2.13026 3.82603,5.00812 4.83562,6.39525 1.00959,1.38712 2.02209,2.65877 2.25,2.82589 0.22791,0.16712 0.72865,0.70419 1.11276,1.19351 0.60944,0.77634 0.57087,1.03107 -0.30287,2 -0.5507,0.61068 -1.42747,1.86339 -1.94839,2.78378 l -0.94712,1.67344 1.8371,1.59679 c 1.0104,0.87823 2.41938,1.90841 3.13106,2.28929 1.19812,0.64121 1.40437,0.58673 2.78454,-0.73555 l 1.49056,-1.42805 1.21317,1.13971 c 1.92616,1.80953 2.54862,3.75774 1.62288,5.07942 -0.71754,1.02444 -0.66628,1.22302 0.78049,3.02333 0.85167,1.05979 2.0944,2.28458 2.76162,2.72176 1.11274,0.72909 1.28877,0.72643 2.12693,-0.0321 0.85284,-0.77181 0.92595,-0.76609 1.09606,0.0858 0.12654,0.63362 -0.61277,1.48611 -2.41764,2.78774 -1.42995,1.03125 -2.79094,1.875 -3.02442,1.875 -0.23348,0 -1.20702,0.64243 -2.16343,1.42762 -0.95641,0.78519 -3.03267,2.0592 -4.61392,2.83113 -1.58125,0.77193 -2.875,1.61824 -2.875,1.88069 0,0.26246 -0.45,0.35951 -1,0.21568 -0.55,-0.14383 -1,-0.0708 -1,0.16237 0,0.91601 -9.1197,5.24013 -14.84745,7.03993 -1.7036,0.53531 -3.7286,1.30249 -4.5,1.70485 -0.7714,0.40236 -1.79389,0.73295 -2.27219,0.73465 -0.4783,0.001 -2.0533,0.45296 -3.5,1.00283 -1.4467,0.54986 -3.01625,0.99986 -3.48789,1 -0.47164,1.3e-4 -1.87692,0.34634 -3.12285,0.76935 -6.79359,2.30648 -26.81469,3.96434 -37.76962,3.12754 z M 251.89779,162.125 c 1.60848,-4.26049 2.04518,-6.17794 1.4551,-6.38908 -1.74712,-0.62515 -7.07348,-2.18099 -7.15748,-2.09072 -0.25899,0.27836 -2.19541,6.60206 -2.19541,7.16949 0,0.54863 5.0116,2.48914 6.81434,2.63854 0.31038,0.0257 0.79794,-0.57198 1.08345,-1.32823 z m -13.66957,-6.83702 c 0.43876,-1.90411 0.62315,-3.6202 0.40976,-3.81355 -0.78846,-0.71439 -7.37913,-1.89326 -7.69822,-1.37697 -0.28624,0.46315 -0.91631,4.23772 -1.10982,6.64859 -0.0627,0.78114 0.35158,1.08686 1.92006,1.41694 1.1,0.23148 2.675,0.59202 3.5,0.8012 0.825,0.20917 1.6531,0.24655 1.84023,0.0831 0.18713,-0.16349 0.69922,-1.85516 1.13799,-3.75927 z m -91.10322,0.93047 c 2.0459,-0.35774 2.32455,-1.14841 1.41634,-4.01884 -0.25227,-0.79729 -0.59405,-2.06836 -0.75953,-2.82461 -0.21924,-1.00195 -0.6035,-1.37339 -1.41634,-1.36907 -1.23675,0.007 -6.32107,1.283 -6.72685,1.68878 -0.14187,0.14187 0.13562,1.86393 0.61665,3.8268 l 0.87459,3.56885 2.06007,-0.27202 c 1.13304,-0.14962 2.90382,-0.41956 3.93507,-0.59989 z m 75.82041,-1.34345 c 0.23136,-0.61875 0.57705,-2.39923 0.76818,-3.95661 0.39842,-3.24632 0.53977,-3.1319 -4.54107,-3.67599 -3.52633,-0.37762 -3.38028,-0.54854 -3.93202,4.60141 l -0.33145,3.09381 1.67047,0.27416 c 1.455,0.2388 2.73996,0.41148 5.30785,0.7133 0.35056,0.0412 0.82668,-0.43133 1.05804,-1.05008 z m -61.66682,-0.93436 c 2.18122,-0.54924 2.22131,-0.59672 2.21591,-2.625 -0.003,-1.1361 -0.14365,-2.90123 -0.31248,-3.92251 l -0.30698,-1.85687 -2.31252,0.25878 c -5.96882,0.66796 -5.56335,0.40503 -5.55569,3.60261 0.0106,4.43414 0.31576,5.10235 2.33007,5.10235 0.94616,0 2.71991,-0.25171 3.94169,-0.55936 z m 46.75966,-0.79558 c 0.0211,-0.21729 0.10065,-0.73256 0.1769,-1.14506 0.0763,-0.4125 0.28601,-2.04375 0.46612,-3.625 l 0.32746,-2.875 h -1.93458 c -1.06402,0 -2.94329,-0.13826 -4.17616,-0.30725 l -2.24158,-0.30724 -0.32982,3.90174 c -0.20262,2.39702 -0.13948,4.01937 0.16371,4.20676 0.75366,0.46578 7.50439,0.60088 7.54795,0.15105 z m -32.09694,-0.47691 2.6913,-0.32315 -0.27649,-3.65582 c -0.15206,-2.0107 -0.39183,-3.84246 -0.53282,-4.07057 -0.14098,-0.22812 -1.9589,-0.19889 -4.03982,0.0649 -4.22711,0.53595 -3.99154,0.1792 -3.46225,5.2431 0.36248,3.46811 0.20569,3.39162 5.62008,2.7415 z m 17.25519,-0.95905 c 0.16693,-0.43499 0.3035,-2.23499 0.3035,-4 V 144.5 h -4 -4 v 4 4 h 3.6965 c 2.90949,0 3.76113,-0.16839 4,-0.7909 z m 62.02955,-24.73589 C 256.20172,125.30848 257,123.7814 257,123.57971 257,123.15427 250.78221,119.5 250.05833,119.5 c -0.26728,0 -1.19253,1.49543 -2.0561,3.32319 -1.40381,2.97115 -1.48975,3.40358 -0.81129,4.08203 0.89544,0.89545 4.7967,3.0024 5.66011,3.05686 0.33057,0.0209 1.39932,-1.32414 2.375,-2.98887 z m -118.66848,0.0975 c 0.65584,-0.51112 1.92368,-1.3044 2.81743,-1.76285 0.89375,-0.45844 1.625,-1.19412 1.625,-1.63483 0,-1.4195 -3.02424,-6.17302 -3.92734,-6.17302 -0.94202,0 -6.57266,3.36707 -6.57266,3.9304 0,0.19432 0.7875,1.57564 1.75,3.0696 0.9625,1.49395 1.75,2.89261 1.75,3.10814 0,0.69669 1.33357,0.41646 2.55757,-0.53744 z m 104.33468,-5.08398 c 0.34805,-0.55731 1.06651,-2.1136 1.5966,-3.45843 0.73617,-1.86769 0.82177,-2.55311 0.36247,-2.90228 -0.88041,-0.66929 -6.89422,-2.74978 -7.16519,-2.47881 -0.1271,0.1271 -0.791,1.77475 -1.47533,3.66143 -1.16662,3.21634 -1.19044,3.46967 -0.38195,4.06085 0.47425,0.34679 1.21302,0.63849 1.64171,0.64824 0.42869,0.01 1.34194,0.33927 2.02944,0.73228 1.73419,0.99135 2.65327,0.92002 3.39225,-0.26328 z m -89.43574,-1.83774 c 3.47983,-1.54472 3.57221,-1.82817 1.91849,-5.88666 -0.80086,-1.96544 -1.39511,-2.76113 -2.06248,-2.76163 -1.21656,-9e-4 -6.81252,2.5086 -6.81252,3.05507 0,0.8838 3.01159,6.94424 3.45078,6.94424 0.25423,0 1.83182,-0.60796 3.50573,-1.35102 z m 75.29739,-2.6553 c 0.17211,-0.27847 0.71967,-1.97316 1.2168,-3.76597 1.0598,-3.82196 1.14177,-3.71968 -3.91799,-4.88859 -2.27595,-0.5258 -3.18171,-0.56831 -3.3231,-0.15597 -0.71526,2.08596 -1.59982,7.13102 -1.30349,7.43442 0.19746,0.20216 1.57145,0.5975 3.05331,0.87853 1.48186,0.28103 2.80521,0.62187 2.94077,0.75743 0.3999,0.3999 0.99797,0.28338 1.3337,-0.25985 z m -60.71492,-1.8344 c 2.62339,-0.72937 2.99169,-0.9777 2.78081,-1.875 -0.1337,-0.56885 -0.54048,-2.34513 -0.90397,-3.94728 -0.63778,-2.8112 -0.70957,-2.90325 -2.05453,-2.63426 -3.61892,0.72378 -6.91686,1.93416 -6.72508,2.46817 0.11437,0.3185 0.6231,1.98534 1.1305,3.70409 1.05013,3.55717 1.10947,3.58066 5.77227,2.28428 z m 46.61975,-2.28428 c 0.40129,-1.68989 0.98294,-6.87213 0.77388,-6.89485 -0.10044,-0.0109 -1.87011,-0.32042 -3.93261,-0.6878 -2.0625,-0.36738 -3.80713,-0.62006 -3.87696,-0.56153 -0.22177,0.1859 -1.1276,7.93129 -0.94852,8.11037 0.0943,0.0943 1.4999,0.30449 3.12349,0.46703 1.62359,0.16254 3.04574,0.38469 3.16032,0.49365 0.58042,0.55198 1.46354,0.0706 1.7004,-0.92687 z M 180.68021,113.18204 183,112.86407 V 108.93204 105 h -1.93022 c -1.06161,0 -2.97411,0.14308 -4.25,0.31796 -2.12892,0.2918 -2.31978,0.43264 -2.31978,1.71185 0,0.76665 0.26364,2.53606 0.58587,3.93204 0.65066,2.8188 0.7986,2.87751 5.59434,2.22019 z M 198,109.78255 c 0,-1.4946 0.21943,-3.2946 0.48762,-4 L 198.97525,104.5 H 194.48762 190 v 4 4 h 4 4 z"
       id="path4457"
       transform="scale(0.26458333)" />
    <path
       style="opacity:0.2;fill:#0000ff;stroke:#2b0000;stroke-width:3.77953;stroke-dasharray:none;stroke-dashoffset:0"
       d="m 276.74708,232.77908 c -1.02253,-1.24786 -2.03972,-2.15724 -2.26041,-2.02084 -0.22069,0.13639 -0.47673,0.0778 -0.56897,-0.13013 -0.37021,-0.8347 -7.89264,-7.06697 -11.32047,-9.37892 -5.07636,-3.42381 -5.12631,-3.53016 -1.98877,-4.23455 7.78282,-1.74728 20.5118,-5.69852 29.89154,-9.27872 2.6125,-0.99718 5.97251,-2.26218 7.4667,-2.81111 1.49419,-0.54893 3.59724,-1.44727 4.67345,-1.99631 1.07622,-0.54905 2.06132,-0.89369 2.18913,-0.76589 0.1278,0.12781 -0.41237,0.98725 -1.20038,1.90988 -0.78801,0.92263 -1.87063,2.26457 -2.40582,2.98208 -0.5352,0.71752 -1.95951,2.63002 -3.16514,4.25 -1.20563,1.61999 -2.46746,3.17189 -2.80406,3.44867 -0.33659,0.27679 -1.26267,1.42244 -2.05794,2.5459 -0.79527,1.12345 -2.39657,3.25949 -3.55846,4.74675 -1.16188,1.48726 -2.89501,3.71661 -3.8514,4.95411 -4.35095,5.62985 -6.07758,7.6833 -6.60797,7.85875 -0.31454,0.10405 -1.4085,-0.8318 -2.43103,-2.07967 z"
       id="path4459"
       transform="scale(0.26458333)" />
    <path
       style="opacity:0.2;fill:#ff0000;stroke:#ff0000;stroke-width:2.67253;stroke-dasharray:2.67253;stroke-dashoffset:0"
       d="m 245.0125,208.47674 c -1.0695,-0.46238 -3.8479,-1.66723 -6.17421,-2.67743 -5.75331,-2.49837 -10.3337,-3.99102 -19.13686,-6.23629 -8.41837,-2.14712 -12.68651,-2.79309 -22.34845,-3.38235 -13.23382,-0.80711 -28.65903,0.89725 -40.90561,4.51975 -4.27892,1.26568 -12.99363,4.38787 -14.72371,5.275 -1.86322,0.9554 -3.81381,1.18407 -5.37836,0.63052 -0.80557,-0.28502 -2.18063,-0.66905 -3.05567,-0.85338 -5.12201,-1.07901 -27.49157,-8.69169 -32.79983,-11.16226 -1.414063,-0.65813 -2.673494,-1.1966 -2.79874,-1.1966 -0.274825,0 -8.266294,-3.67833 -10.009819,-4.60734 -1.849779,-0.98563 -3.104112,-1.59089 -5.783402,-2.79071 l -2.424645,-1.08579 1.049196,-0.9801 c 1.509165,-1.40977 1.693784,-2.31859 0.826921,-4.07067 l -0.732982,-1.48149 0.913457,-0.88884 c 0.890154,-0.86617 0.923896,-0.87115 1.322746,-0.19543 0.879409,1.48988 2.315428,2.66535 3.256147,2.66535 1.148211,0 7.231217,-2.9144 8.110156,-3.88562 0.342024,-0.37793 0.621862,-1.08549 0.621862,-1.57234 0,-0.96823 -2.282363,-6.02002 -3.15589,-6.98525 -0.497284,-0.54949 -0.425919,-0.74744 0.815825,-2.26282 l 1.36078,-1.66065 0.249972,1.46428 c 0.329102,1.92781 2.959428,6.9499 4.116859,7.86033 0.628001,0.49399 1.188803,0.64882 1.797067,0.49616 1.71786,-0.43116 5.96665,-2.70727 6.92934,-3.7121 0.8475,-0.8846 0.95198,-1.22532 0.7971,-2.59942 -0.20261,-1.79754 -2.06609,-6.01563 -3.18382,-7.20673 -1.13069,-1.20492 -2.53103,-0.98912 -6.191699,0.95417 -1.798703,0.95485 -3.270369,1.65474 -3.270369,1.5553 0,-0.0994 1.948963,-2.33099 4.331029,-4.95901 2.382069,-2.62803 4.861299,-5.39925 5.509399,-6.15829 0.6481,-0.75903 1.34507,-1.38005 1.54881,-1.38005 0.36593,0 5.66654,4.47288 5.85604,4.94158 0.0539,0.13323 -0.53724,0.45186 -1.31356,0.70807 -2.09507,0.69144 -2.96761,1.77681 -2.75796,3.43068 0.26263,2.07167 2.27096,6.92694 3.17066,7.66522 1.05735,0.86766 3.4957,0.63115 6.69237,-0.64912 2.62413,-1.05097 3.45727,-1.78284 3.78657,-3.3263 l 0.22348,-1.04742 3.10092,1.9252 c 31.44835,19.52458 69.45201,25.97225 104.93544,17.80327 11.19239,-2.57671 20.86272,-5.76746 28.24849,-9.32066 2.20952,-1.06297 3.02281,-1.27087 4.97147,-1.27087 2.55186,0 3.6192,-0.60618 4.28266,-2.43226 0.29943,-0.82413 4.06843,-3.46489 4.42967,-3.10366 0.0699,0.0699 -0.36039,1.16859 -0.95611,2.44162 -2.17013,4.63746 -1.79325,5.68327 2.89342,8.02902 3.57205,1.78787 4.83303,1.84523 6.15971,0.28019 1.46691,-1.73047 3.33145,-6.0037 3.33145,-7.63519 0,-1.83951 -1.05446,-2.73373 -5.06163,-4.29246 l -3.03359,-1.18001 3.71399,-2.41759 c 2.0427,-1.32967 3.77231,-2.41758 3.84358,-2.41758 0.0713,0 1.54389,1.86941 3.2725,4.15425 1.7286,2.28484 4.05219,5.32984 5.16353,6.76668 1.11135,1.43684 1.95981,2.67325 1.88548,2.74758 -0.0743,0.0743 -0.99355,-0.26444 -2.04269,-0.75282 -2.59624,-1.20857 -3.56835,-1.15664 -4.75877,0.25417 -1.27622,1.5125 -3.33929,5.84091 -3.32343,6.9727 0.0252,1.80036 1.03546,2.8698 4.62671,4.89792 2.41706,1.36501 4.18743,1.47444 5.28992,0.32697 1.12973,-1.17582 2.98428,-4.14548 3.51711,-5.63189 l 0.46631,-1.30086 1.13661,1.59867 1.13661,1.59866 -1.90571,2.65617 c -2.51793,3.50946 -2.53828,4.36827 -0.15637,6.59627 0.96214,0.89997 2.31448,1.9058 3.0052,2.23518 0.69072,0.32939 1.25586,0.70132 1.25586,0.82652 0,0.74032 -19.42845,8.11685 -28.8146,10.94022 -8.24876,2.48125 -9.42916,2.81797 -12.55115,3.58031 -13.01233,3.17742 -12.55195,3.11771 -15.20279,1.97167 z"
       id="path4668"
       transform="scale(0.26458333)" />
    <path
       style="opacity:0.2;fill:#ff0000;stroke:#ff0000;stroke-width:2.67253;stroke-dasharray:2.67253;stroke-dashoffset:0"
       d="M 102.84488,220.83907 C 90.747025,206.27828 88.034794,202.97586 88.034794,202.80626 c 0,-0.099 1.233017,0.38698 2.740039,1.07987 4.584801,2.108 16.444917,6.59114 24.571957,9.28825 4.22939,1.40359 7.68979,2.59902 7.68979,2.6565 0,0.0575 -1.55122,1.10681 -3.44715,2.33184 -1.89593,1.22503 -5.11768,3.60265 -7.15945,5.28359 -2.04177,1.68094 -3.88903,3.15967 -4.10502,3.28605 -0.22902,0.13401 -2.51319,-2.32239 -5.48008,-5.89329 z"
       id="path4670"
       transform="scale(0.26458333)" />
    <path
       style="opacity:0.2;fill:#ff0000;stroke:#ff0000;stroke-width:2.67253;stroke-dasharray:2.67253;stroke-dashoffset:0"
       d="m 277.69395,230.83961 c -0.57113,-0.60028 -1.62113,-1.5151 -2.33333,-2.03294 -0.71221,-0.51783 -2.9445,-2.33095 -4.96065,-4.02916 -2.01616,-1.6982 -4.6515,-3.78178 -5.85631,-4.63016 l -2.19057,-1.54252 2.02469,-0.44496 c 5.67041,-1.24615 21.45065,-6.39724 31.34612,-10.2322 1.5427,-0.59787 2.84731,-1.04464 2.89913,-0.99281 0.0518,0.0518 -1.08316,1.60036 -2.5222,3.44119 -1.43904,1.84084 -4.63917,5.97211 -7.11141,9.1806 -6.73896,8.74591 -9.66424,12.37437 -9.97626,12.37437 -0.15444,0 -0.74808,-0.49113 -1.31921,-1.09141 z"
       id="path4672"
       transform="scale(0.26458333)" />
    <path
       style="opacity:0.2;fill:#ff0000;stroke:#ff0000;stroke-width:2.67253;stroke-dasharray:2.67253;stroke-dashoffset:0"
       d="m 197.95082,216.57397 c -0.0757,-0.0743 -4.27133,-0.24698 -9.32355,-0.38381 -5.05222,-0.13683 -9.55712,-0.38994 -10.0109,-0.56246 -0.45378,-0.17253 -2.17749,-0.31369 -3.83048,-0.31369 -1.65299,0 -3.27468,-0.14409 -3.60376,-0.32021 -0.32908,-0.17612 -2.11787,-0.40715 -3.97508,-0.5134 -1.85721,-0.10626 -3.77323,-0.34393 -4.25783,-0.52818 -0.4846,-0.18424 -2.18399,-0.42819 -3.77642,-0.54212 -1.59244,-0.11392 -3.17531,-0.34998 -3.51749,-0.52457 -0.34218,-0.17459 -1.05424,-0.51908 -1.58235,-0.76553 -0.52812,-0.24645 -0.88864,-0.56389 -0.80117,-0.70541 0.0875,-0.14153 -0.10085,-0.77827 -0.41848,-1.41497 -0.31763,-0.63671 -0.5935,-1.72507 -0.61304,-2.4186 l -0.0355,-1.26094 2.96022,-0.96497 c 3.13008,-1.02034 3.68667,-0.93438 3.81843,0.58974 0.0336,0.38891 0.32969,1.45914 0.65792,2.37828 0.57927,1.62208 0.93936,1.82993 2.28615,1.31959 0.0972,-0.0368 0.4552,-0.0387 0.7955,-0.004 0.34029,0.0346 0.61872,-0.11555 0.61872,-0.3337 0,-0.21816 0.17427,-0.28894 0.38726,-0.1573 0.213,0.13163 0.73007,0.0738 1.14905,-0.12841 0.41898,-0.20226 1.19931,-0.46271 1.73405,-0.57877 0.63297,-0.13737 0.97228,-0.43859 0.97228,-0.86313 0,-0.79789 -0.58007,-3.90531 -0.86798,-4.64979 -0.17118,-0.44262 0.42024,-0.65136 3.21467,-1.1346 1.88345,-0.3257 3.5429,-0.51898 3.68767,-0.42951 0.14477,0.0895 0.18067,0.47834 0.0798,0.86415 -0.1009,0.38581 -0.0616,0.98227 0.0874,1.32547 0.33318,0.7676 0.39379,1.06972 0.46212,2.30338 l 0.0538,0.97227 h 2.98434 c 1.64139,0 3.08267,-0.1591 3.20285,-0.35355 0.12017,-0.19445 0.52731,-0.35355 0.90474,-0.35355 0.62547,0 0.68625,-0.26616 0.68625,-3.00521 v -3.0052 h 3.51588 3.51589 l -0.0981,2.97706 -0.0981,2.97706 3.91842,-0.0777 3.91841,-0.0777 0.10282,-2.90777 0.10283,-2.90777 2.37205,0.20319 c 1.30462,0.11175 2.91171,0.28607 3.5713,0.38736 l 1.19925,0.18417 -0.23412,3.04583 c -0.12877,1.67521 -0.12622,2.93794 0.006,2.80606 0.13188,-0.13188 0.41351,-0.096 0.62586,0.0797 0.21235,0.17574 1.60145,0.41123 3.08691,0.52332 1.48546,0.11208 2.93763,0.29466 3.22705,0.40572 0.55997,0.21488 0.76931,-0.48431 1.16907,-3.90464 0.11353,-0.97133 0.25356,-1.81321 0.31118,-1.87082 0.0576,-0.0576 1.59634,0.27144 3.41939,0.73126 l 3.31462,0.83602 -0.1226,1.35744 c -0.0674,0.74659 -0.32684,2.03609 -0.57647,2.86556 -0.44469,1.47759 -0.43505,1.51573 0.47615,1.88354 0.51151,0.20648 1.56642,0.47192 2.34424,0.58987 0.77782,0.11795 1.96106,0.44206 2.62942,0.72024 1.40404,0.58439 2.10112,0.18394 2.28352,-1.31176 0.10644,-0.87291 0.96781,-3.85851 1.1132,-3.85851 0.25589,0 5.74369,1.90718 6.25338,2.17324 0.57579,0.30057 0.57724,0.40856 0.0243,1.81322 -0.32335,0.82149 -0.69514,1.57317 -0.82619,1.6704 -0.13105,0.0972 -0.42923,0.76269 -0.66263,1.4788 -0.48293,1.48177 -0.72892,1.57101 -5.15819,1.87125 -1.55563,0.10545 -3.74623,0.35696 -4.868,0.55892 -1.12176,0.20195 -2.18753,0.27574 -2.36838,0.16398 -0.18084,-0.11177 -1.33132,-0.0448 -2.55662,0.14883 -1.2253,0.19362 -5.86276,0.43678 -10.30547,0.54035 -4.44272,0.10357 -8.19913,0.26337 -8.34758,0.35512 -0.14846,0.0918 -0.33189,0.10606 -0.40762,0.0318 z"
       id="path4676"
       transform="scale(0.26458333)" />
    <path
       style="opacity:0.2;fill:#ff0000;stroke:#ff0000;stroke-width:2.67253;stroke-dasharray:2.67253;stroke-dashoffset:0"
       d="m 193.04015,267.96683 c 0,-0.24662 -1.02476,-0.35359 -2.91681,-0.30447 -4.02739,0.10456 -10.15242,-0.47841 -11.87569,-1.13032 -0.45493,-0.17209 -1.79574,-0.40245 -2.97957,-0.5119 -1.18383,-0.10944 -2.85494,-0.4375 -3.71358,-0.72902 -0.85863,-0.29151 -1.78499,-0.44413 -2.05857,-0.33915 -0.27358,0.10499 -0.49741,0.0589 -0.49741,-0.10233 0,-0.16127 -0.78505,-0.38619 -1.74457,-0.49983 -0.95951,-0.11364 -2.43117,-0.51553 -3.27037,-0.8931 -0.83919,-0.37756 -2.08264,-0.79018 -2.76323,-0.91692 -2.25768,-0.42045 -4.24265,-0.999 -4.24265,-1.23657 0,-0.20948 -0.76201,-0.47817 -5.3033,-1.86999 -0.68059,-0.20859 -1.5766,-0.64313 -1.99113,-0.96565 -0.41453,-0.32251 -1.44868,-0.79165 -2.29809,-1.04253 -1.75712,-0.51895 -3.72949,-1.43813 -5.78705,-2.6969 -0.77782,-0.47585 -1.68422,-0.8678 -2.01422,-0.871 -0.7016,-0.007 -3.85381,-1.62133 -3.62067,-1.85447 0.16845,-0.16846 -3.17228,-2.07434 -3.63662,-2.07468 -0.36764,-2.8e-4 -2.04212,-1.0935 -3.98674,-2.60283 -0.87504,-0.67918 -1.80508,-1.23872 -2.06674,-1.24344 -0.56268,-0.0101 -2.00149,-0.99945 -3.52959,-2.42691 -0.60383,-0.56406 -1.64649,-1.2859 -2.31701,-1.60408 -0.67053,-0.31819 -2.14744,-1.44902 -3.28203,-2.51295 -1.13458,-1.06394 -2.2371,-1.93792 -2.45003,-1.94217 -0.21293,-0.004 -0.68811,-0.34031 -1.05596,-0.74678 -0.65671,-0.72566 -0.6561,-0.74819 0.0336,-1.24415 1.37417,-0.98818 1.93985,-1.5506 1.93985,-1.92869 0,-0.21079 -0.87609,-1.30175 -1.94687,-2.42435 l -1.94687,-2.04109 2.19003,-1.73336 c 3.65832,-2.89548 3.50846,-2.8174 3.93509,-2.05033 0.20511,0.36879 0.82315,1.12233 1.37342,1.67454 0.55027,0.55221 1.16203,1.30584 1.35945,1.67473 0.345,0.64463 0.40331,0.64684 1.49953,0.0566 1.43734,-0.77384 3.23893,-2.05645 4.40001,-3.1325 0.65049,-0.60286 0.79751,-0.95435 0.53451,-1.2779 -0.52768,-0.64916 -2.61422,-4.5778 -2.48897,-4.68634 0.0585,-0.0506 1.28844,-0.82334 2.73331,-1.7171 2.05412,-1.27062 2.73322,-1.53687 3.11397,-1.22088 0.58381,0.48452 2.38764,3.49753 2.38945,3.99119 0.003,0.76092 1.15592,0.49129 3.00648,-0.70298 1.89119,-1.22049 4.34981,-2.13775 4.86952,-1.81672 0.14135,0.0873 1.11578,0.25435 2.1654,0.37119 1.04961,0.11684 2.71037,0.4506 3.69057,0.74169 0.9802,0.29109 2.74655,0.62506 3.92524,0.74216 1.17868,0.11711 2.26883,0.28925 2.42256,0.38255 0.31816,0.19309 8.14,1.37355 12.58571,1.89941 1.63116,0.19295 3.06305,0.41015 3.18199,0.48267 0.11894,0.0725 1.80219,0.23949 3.74057,0.37102 1.93837,0.13153 3.61957,0.29803 3.73599,0.36998 0.98548,0.60906 28.18453,0.9208 36.75709,0.42129 10.89391,-0.63477 18.81247,-1.49167 27.22463,-2.94608 5.04546,-0.87233 5.59848,-0.89555 6.54586,-0.2748 0.48276,0.31631 0.87774,0.47924 0.87774,0.36207 0,-0.11718 0.8674,0.34182 1.92756,1.02 1.06016,0.67817 2.08347,1.23304 2.27403,1.23304 0.34092,0 2.01675,-2.12997 1.94719,-2.47487 -0.0196,-0.0972 0.34098,-0.7734 0.80131,-1.5026 0.99052,-1.56909 1.90363,-1.69804 2.50345,-0.35356 0.23857,0.53475 1.23332,1.51514 2.21055,2.17865 1.53702,1.04358 1.71469,1.28213 1.31667,1.76777 -0.25306,0.30876 -0.68632,1.01258 -0.96281,1.56404 -0.27648,0.55146 -0.87668,1.4062 -1.33378,1.89942 l -0.8311,0.89676 1.17227,1.00303 c 0.64474,0.55167 1.31497,1.0095 1.4894,1.0174 0.17442,0.008 0.99669,0.57122 1.82726,1.25181 0.83057,0.68059 1.60406,1.23743 1.71885,1.23743 0.40336,0 2.30248,-1.86999 2.14989,-2.11689 -0.0849,-0.13738 0.30958,-0.69427 0.87663,-1.23754 l 1.03101,-0.98777 2.05001,1.77793 c 3.43687,2.98071 3.3991,2.90932 2.23013,4.21516 -0.55172,0.61631 -1.06819,1.05549 -1.14772,0.97596 -0.0795,-0.0795 -0.56504,0.29425 -1.07892,0.83063 l -0.93432,0.97522 2.6019,2.77626 c 1.43104,1.52694 2.5747,2.95585 2.54146,3.17534 -0.13114,0.8659 -1.86613,2.7722 -3.62657,3.98466 -1.01925,0.70198 -1.92459,1.45519 -2.01189,1.6738 -0.0873,0.21861 -0.7728,0.69593 -1.52336,1.06071 -3.19621,1.55338 -4.23298,2.12581 -4.90019,2.70553 -0.82486,0.7167 -3.0052,1.86512 -3.0052,1.58288 0,-0.25834 -2.47521,1.01715 -4.05701,2.09059 -0.69838,0.47393 -1.78156,0.97051 -2.40708,1.1035 -0.62552,0.13299 -2.17856,0.76009 -3.4512,1.39354 -1.27265,0.63345 -3.24099,1.42124 -4.3741,1.75064 -1.13311,0.32941 -2.63455,0.90675 -3.33651,1.28298 -0.70198,0.37624 -1.83606,0.7773 -2.5202,0.89126 -1.65077,0.27497 -3.47484,0.80654 -4.79355,1.39694 -0.59114,0.26465 -2.16246,0.65494 -3.49182,0.86731 -1.32936,0.21236 -2.97921,0.62101 -3.66632,0.90811 -0.68712,0.28709 -2.21823,0.6072 -3.40248,0.71134 -1.18424,0.10414 -2.71001,0.35818 -3.3906,0.56454 -0.68059,0.20636 -2.66933,0.50282 -4.41942,0.6588 -1.75009,0.15598 -4.05033,0.45192 -5.11164,0.65763 -1.20928,0.23439 -2.00715,0.24865 -2.1372,0.0382 -0.24433,-0.39534 -3.81987,-0.0412 -4.09606,0.40564 -0.26346,0.42628 -3.32756,0.37981 -3.32756,-0.0505 0,-0.19642 -0.94282,-0.35355 -2.12133,-0.35355 -1.17851,0 -2.12132,0.15713 -2.12132,0.35355 0,0.19445 -0.79549,0.35355 -1.76776,0.35355 -1.0254,0 -1.76777,-0.15966 -1.76777,-0.38019 z"
       id="path4678"
       transform="scale(0.26458333)" />
    <path
       style="opacity:0.2;fill:#ff0000;stroke:#ff0000;stroke-width:2.67253;stroke-dasharray:2.67253;stroke-dashoffset:0"
       d="m 165.15746,299.72338 c -18.32779,-22.16051 -33.26677,-40.34831 -33.19774,-40.41735 0.069,-0.069 1.51518,0.59592 3.21367,1.47766 13.71772,7.1214 29.82975,12.13426 45.99768,14.31106 6.92994,0.93303 20.10019,1.27486 27.26219,0.70758 16.19555,-1.28279 31.84789,-5.19377 46.21357,-11.54719 1.89593,-0.8385 3.44714,-1.45473 3.44714,-1.36941 0,0.11707 -46.34851,60.09869 -57.79466,74.79457 l -1.81859,2.33491 z"
       id="path4680"
       transform="scale(0.26458333)" />
    <path
       style="opacity:0.2;fill:#ff0000;stroke:#00ff00;stroke-width:2.67253;stroke-dasharray:none;stroke-dashoffset:0"
       d="m 184.07016,171.64418 c -2.61541,-0.328 -6.34446,-0.92044 -8.28679,-1.31655 -5.74133,-1.17087 -10.38532,-2.25517 -10.80021,-2.52171 -0.21311,-0.13691 -1.75288,-0.63885 -3.4217,-1.11542 -5.1939,-1.48324 -17.72702,-6.54025 -18.8115,-7.5903 -0.19885,-0.19253 0.0145,-0.31628 0.53583,-0.31087 1.92404,0.0199 5.80906,-0.97284 6.59425,-1.6851 1.30487,-1.18368 1.3899,-2.4161 0.41732,-6.04855 -1.08548,-4.05412 -1.75736,-4.89836 -3.92839,-4.93626 -2.01966,-0.0352 -6.70317,1.13231 -7.82173,1.9499 -1.05755,0.77299 -1.11047,2.53548 -0.1894,6.30844 0.34569,1.41604 0.55696,2.57337 0.46948,2.57185 -0.4332,-0.008 -2.1261,-1.10835 -2.68068,-1.74307 -0.34543,-0.39536 -0.83187,-1.55 -1.08097,-2.56588 -0.80686,-3.29049 -2.01034,-3.94993 -5.4007,-2.95929 l -2.16297,0.632 -2.88146,-2.00098 c -1.58481,-1.10054 -3.3529,-2.42761 -3.92909,-2.94903 -0.5762,-0.52143 -1.51729,-1.30319 -2.09132,-1.73725 l -1.0437,-0.78919 1.17846,-1.17906 1.17846,-1.17906 -0.73701,-0.69076 -0.737,-0.69075 1.16521,-0.93875 c 0.92599,-0.74601 1.30208,-0.86239 1.83186,-0.56685 0.8768,0.48912 2.52047,0.13708 3.31425,-0.70984 0.34853,-0.37186 0.81669,-0.67292 1.04037,-0.66901 0.79146,0.0138 5.26835,-3.83945 5.06709,-4.36126 -0.10696,-0.27731 -0.27362,-0.70809 -0.37036,-0.9573 -0.097,-0.24984 0.28421,-0.71418 0.84971,-1.03505 0.83635,-0.47455 1.21817,-0.50538 2.06919,-0.16707 1.42644,0.56706 2.32778,0.28798 5.44829,-1.68692 2.96044,-1.8736 3.79947,-2.6447 4.00889,-3.68428 0.077,-0.38236 0.7594,-1.02855 1.51639,-1.43597 1.34856,-0.72581 1.38958,-0.72707 2.03133,-0.0625 0.8967,0.92856 1.69134,0.87228 4.65938,-0.33 3.06035,-1.23966 4.8177,-2.46733 5.11609,-3.57404 0.1558,-0.57787 0.64281,-0.93484 1.66796,-1.22258 1.24304,-0.3489 1.64264,-0.31446 2.82427,0.24339 1.21816,0.57511 1.62299,0.60333 3.52186,0.24556 3.41614,-0.64364 5.36053,-1.49486 6.16661,-2.69963 1.02763,-1.5359 2.60198,-1.76205 4.59456,-0.66001 1.49252,0.82548 1.63234,0.83871 5.01699,0.4747 4.93262,-0.53048 5.07653,-0.58088 5.09755,-1.78512 0.0166,-0.95062 0.11145,-1.01764 1.40831,-0.995 1.25414,0.0219 1.39982,0.1198 1.4854,0.99835 0.0823,0.84475 0.24746,0.97413 1.2441,0.97449 0.63207,2.3e-4 3.29727,0.007 5.92266,0.015 l 4.77345,0.0146 0.0154,-0.88375 c 0.0129,-0.74149 0.18208,-0.88084 1.05068,-0.86568 1.08375,0.0189 2.13261,0.81873 2.1187,1.61564 -0.0117,0.66858 0.75288,0.90778 4.92361,1.54042 4.72538,0.71677 4.46813,0.72912 5.49629,-0.26377 0.7175,-0.69288 1.10875,-0.80564 2.14648,-0.61859 0.99686,0.17967 1.38542,0.48414 1.81158,1.4195 0.59918,1.31507 1.63968,1.82166 5.86832,2.85708 3.11469,0.76267 3.42027,0.76135 4.46114,-0.0191 0.73662,-0.55235 1.02199,-0.58033 2.0688,-0.20282 0.91992,0.33175 1.27998,0.71086 1.48517,1.56375 0.30552,1.26992 1.27,2.04385 3.4763,2.78951 0.83107,0.28087 2.18662,0.76918 3.01234,1.08513 1.33528,0.51094 1.64122,0.51886 2.7664,0.0716 1.1626,-0.46211 1.374,-0.44485 2.6097,0.21298 0.94083,0.50086 1.45752,1.07907 1.72055,1.92543 0.46547,1.49771 0.96467,1.96337 3.89286,3.63124 2.35952,1.34396 3.63231,1.64277 5.23292,1.2285 0.65351,-0.16914 1.15354,-0.007 1.89345,0.61374 0.86638,0.72692 0.94811,0.94636 0.59092,1.58664 -0.37584,0.67374 -0.17601,0.94497 2.14238,2.90786 3.35956,2.84441 5.15006,3.80906 6.63071,3.57238 1.45354,-0.23235 3.06995,1.08631 3.04554,2.48454 -0.0236,1.34921 0.50366,2.22739 2.79628,4.65778 l 2.05248,2.17583 -1.52582,0.82285 c -0.8392,0.45257 -2.29597,1.38489 -3.23728,2.07183 -1.934,1.41139 -6.4149,3.88035 -7.75581,4.27342 -0.48871,0.14326 -1.35396,0.63599 -1.92277,1.09496 -0.56881,0.45896 -1.67516,1.1475 -2.45856,1.53008 l -1.42436,0.6956 0.31721,-1.35064 c 0.52645,-2.24154 0.40309,-3.70059 -0.36755,-4.34721 -0.38627,-0.32411 -2.33037,-1.07477 -4.32022,-1.66812 -2.93835,-0.8762 -3.74605,-1.00188 -4.30019,-0.66911 -0.37526,0.22535 -0.83698,0.31036 -1.02603,0.18891 -0.46465,-0.2985 -1.57242,2.1857 -2.55703,5.73417 -0.74996,2.70282 -0.76967,2.98682 -0.26305,3.79026 0.30121,0.47769 1.10062,1.16451 1.77645,1.52628 l 1.22881,0.65775 -3.2986,1.21088 c -4.81573,1.76781 -13.97715,4.38208 -18.39741,5.24983 -10.31715,2.02538 -28.70046,2.59356 -39.6174,1.22448 z m 54.26941,-11.17006 c 0.93775,-0.90558 1.85148,-3.8452 2.15502,-6.9331 0.23144,-2.35438 0.18975,-2.58754 -0.61091,-3.41665 -0.91887,-0.95152 -3.15686,-1.61351 -6.86387,-2.03032 -3.69748,-0.41574 -4.31711,0.43601 -5.01622,6.89533 -0.26982,2.49299 -0.23386,2.73217 0.55317,3.68012 0.65795,0.79249 1.45214,1.16215 3.63743,1.69311 3.78515,0.91967 5.28041,0.9468 6.14538,0.11151 z m -14.36822,-3.76195 c 0.65961,-0.69841 1.07838,-1.69037 1.38322,-3.27656 1.29461,-6.73641 0.21304,-7.96276 -7.26545,-8.23802 -2.17457,-0.08 -3.29306,0.33446 -3.91606,1.45123 -0.49342,0.8845 -1.60375,9.54204 -1.26793,9.88645 0.36027,0.36949 7.85162,1.4492 9.05716,1.30538 0.58467,-0.0697 1.48874,-0.57756 2.00906,-1.12848 z m -61.43454,-1.04136 c 2.44426,-0.76408 3.21469,-2.09825 2.9744,-5.15076 -0.23338,-2.9648 -0.84006,-6.91878 -1.08371,-7.06303 -0.46379,-0.27457 -8.0989,0.76794 -9.30791,1.27092 -1.80435,0.75065 -2.21112,1.86865 -2.0933,5.75338 0.10359,3.4152 0.62023,4.65419 2.3454,5.6246 1.04916,0.59016 4.56911,0.37641 7.16512,-0.43511 z m 14.36712,-1.06822 c 2.03001,-0.25245 3.74876,-0.51486 3.81944,-0.58312 0.0707,-0.0683 -0.0678,-2.23296 -0.30767,-4.81046 -0.63061,-6.77529 -1.03414,-7.18064 -6.51826,-6.54767 -3.85961,0.44546 -4.71699,0.80697 -5.45843,2.30153 -0.49848,1.0048 -0.53581,1.61039 -0.25287,4.10148 0.41319,3.63774 0.82797,4.76799 1.99156,5.42696 1.16451,0.65948 2.18279,0.67633 6.72623,0.11129 z m 32.23172,0.089 c 0.6916,-0.54031 0.90374,-1.22303 1.33872,-4.30832 0.28429,-2.01644 0.53565,-4.39846 0.55857,-5.29337 l 0.0417,-1.62712 -6.09447,-0.30076 c -3.35196,-0.16541 -6.12915,-0.26937 -6.17153,-0.23102 -0.0424,0.0384 -0.22289,2.2238 -0.40112,4.85654 -0.28969,4.27888 -0.25713,4.90477 0.30682,5.89868 0.34699,0.61154 0.87719,1.183 1.17821,1.26991 0.30101,0.0869 2.31895,0.20741 4.4843,0.26777 3.34797,0.0933 4.05994,0.0137 4.75882,-0.53232 z m -15.37758,-0.82692 c 1.35848,-0.85662 1.60917,-1.88505 1.69785,-6.96519 l 0.0807,-4.6262 -3.77076,0.16472 c -2.07392,0.0906 -4.78,0.14711 -6.01352,0.12557 l -2.24275,-0.0391 -0.10078,5.77382 c -0.0554,3.17561 0.0163,5.90054 0.1595,6.05541 0.14316,0.15487 2.28952,0.2374 4.76968,0.1834 3.38743,-0.0738 4.73595,-0.24105 5.42003,-0.6724 z"
       id="path4800"
       transform="scale(0.26458333)" />
    <text
       xml:space="preserve"
       transform="matrix(0.26458333,0,0,0.26458333,-14.176918,2.8399742)"
       id="text4919"
       style="font-size:18.6667px;white-space:pre;shape-inside:url(#rect4921);shape-padding:0;display:inline;opacity:0.2;fill:#ff0000;stroke:#00ff00;stroke-width:7.55906;stroke-dasharray:none;stroke-dashoffset:0" />
    <text
       xml:space="preserve"
       style="font-size:4.23333px;opacity:0.2;fill:#ff0000;stroke:none;stroke-width:2;stroke-dasharray:none;stroke-dashoffset:0;stroke-opacity:0"
       x="36.5741"
       y="80.818115"
       id="text6735"><tspan
         sodipodi:role="line"
         id="tspan6733"
         style="stroke-width:2" /></text>
    <g
       inkscape:label=""
       transform="translate(65.386672,19.433417)"
       id="g6913"
       style="stroke-dasharray:none;stroke-width:0.15;stroke:none;fill:#0000ff">
      <g
         fill="#000000"
         fill-opacity="1"
         id="g25"
         transform="matrix(0.352778,0,0,0.352778,-0.176389,0.0787576)"
         style="stroke:none;stroke-width:0.42519658;stroke-dasharray:none;fill:#0000ff">
        <g
           id="use23"
           transform="translate(0,6.8080001)"
           style="stroke:none;stroke-width:0.42519658;stroke-dasharray:none;fill:#0000ff">
          <path
             d="m 7.578125,-6.921875 c 0,-0.03125 -0.015625,-0.109375 -0.109375,-0.109375 -0.03125,0 -0.046875,0.015625 -0.15625,0.125 L 6.625,-6.140625 C 6.53125,-6.28125 6.078125,-7.03125 4.96875,-7.03125 2.734375,-7.03125 0.5,-4.828125 0.5,-2.515625 0.5,-0.875 1.671875,0.21875 3.203125,0.21875 c 0.859375,0 1.625,-0.390625 2.15625,-0.859375 0.921875,-0.8125 1.09375,-1.71875 1.09375,-1.75 C 6.453125,-2.5 6.34375,-2.5 6.328125,-2.5 c -0.0625,0 -0.109375,0.03125 -0.125,0.109375 -0.09375,0.28125 -0.328125,1 -1.015625,1.578125 -0.6875,0.546875 -1.3125,0.71875 -1.828125,0.71875 -0.890625,0 -1.953125,-0.515625 -1.953125,-2.0625 0,-0.578125 0.203125,-2.1875 1.203125,-3.359375 0.609375,-0.703125 1.546875,-1.203125 2.4375,-1.203125 1.015625,0 1.609375,0.765625 1.609375,1.921875 0,0.40625 -0.03125,0.40625 -0.03125,0.515625 0,0.09375 0.109375,0.09375 0.140625,0.09375 0.125,0 0.125,-0.015625 0.1875,-0.203125 z m 0,0"
             id="path43"
             style="stroke:none;stroke-width:0.42519658;stroke-dasharray:none;fill:#0000ff" />
        </g>
      </g>
      <g
         clip-path="url(#clipPath6509)"
         id="g31"
         transform="matrix(0.352778,0,0,0.352778,-0.176389,0.0787576)"
         style="stroke:none;stroke-width:0.42519658;stroke-dasharray:none;fill:#0000ff">
        <g
           fill="#000000"
           fill-opacity="1"
           id="g29"
           style="stroke:none;stroke-width:0.42519658;stroke-dasharray:none;fill:#0000ff">
          <g
             id="use27"
             transform="translate(7.1209998,8.302)"
             style="stroke:none;stroke-width:0.42519658;stroke-dasharray:none;fill:#0000ff">
            <path
               d="m 1.4375,-0.84375 c -0.25,0.390625 -0.46875,0.5625 -0.875,0.59375 -0.078125,0 -0.171875,0 -0.171875,0.140625 C 0.390625,-0.03125 0.453125,0 0.5,0 0.671875,0 0.90625,-0.03125 1.09375,-0.03125 1.3125,-0.03125 1.609375,0 1.8125,0 1.84375,0 1.953125,0 1.953125,-0.15625 1.953125,-0.25 1.859375,-0.25 1.828125,-0.25 1.78125,-0.265625 1.53125,-0.265625 1.53125,-0.453125 c 0,-0.09375 0.0625,-0.203125 0.09375,-0.265625 l 0.5625,-0.875 h 2 L 4.34375,-0.4375 C 4.328125,-0.359375 4.28125,-0.25 3.875,-0.25 c -0.09375,0 -0.1875,0 -0.1875,0.15625 C 3.6875,-0.0625 3.703125,0 3.796875,0 4,0 4.5,-0.03125 4.703125,-0.03125 c 0.125,0 0.28125,0.015625 0.40625,0.015625 C 5.234375,-0.015625 5.375,0 5.5,0 5.59375,0 5.640625,-0.0625 5.640625,-0.140625 5.640625,-0.25 5.5625,-0.25 5.453125,-0.25 c -0.40625,0 -0.421875,-0.0625 -0.4375,-0.21875 l -0.625,-4.3125 C 4.375,-4.921875 4.359375,-4.96875 4.234375,-4.96875 4.09375,-4.96875 4.0625,-4.90625 4,-4.8125 Z m 0.921875,-1 L 3.8125,-4.125 4.140625,-1.84375 Z m 0,0"
               id="path47"
               style="stroke:none;stroke-width:0.42519658;stroke-dasharray:none;fill:#0000ff" />
          </g>
        </g>
      </g>
      <g
         clip-path="url(#clipPath1377)"
         id="g37"
         transform="matrix(0.352778,0,0,0.352778,-0.176389,0.0787576)"
         style="stroke:none;stroke-width:0.42519658;stroke-dasharray:none;fill:#0000ff">
        <g
           fill="#000000"
           fill-opacity="1"
           id="g35"
           style="stroke:none;stroke-width:0.42519658;stroke-dasharray:none;fill:#0000ff">
          <g
             id="use33"
             transform="translate(13.61,6.8080001)"
             style="stroke:none;stroke-width:0.42519658;stroke-dasharray:none;fill:#0000ff">
            <path
               d="M 4.828125,-4.09375 4,-6.078125 c -0.03125,-0.078125 -0.046875,-0.125 -0.046875,-0.125 0,-0.0625 0.15625,-0.25 0.578125,-0.296875 0.109375,-0.015625 0.203125,-0.015625 0.203125,-0.1875 0,-0.125 -0.125,-0.125 -0.15625,-0.125 -0.40625,0 -0.828125,0.03125 -1.25,0.03125 -0.25,0 -0.859375,-0.03125 -1.109375,-0.03125 -0.0625,0 -0.1875,0 -0.1875,0.203125 C 2.03125,-6.5 2.140625,-6.5 2.265625,-6.5 c 0.59375,0 0.65625,0.09375 0.75,0.3125 l 1.171875,2.78125 -2.109375,2.265625 -0.125,0.109375 C 1.46875,-0.5 1,-0.34375 0.484375,-0.3125 c -0.125,0.015625 -0.21875,0.015625 -0.21875,0.203125 0,0.015625 0,0.109375 0.140625,0.109375 0.296875,0 0.625,-0.03125 0.921875,-0.03125 C 1.703125,-0.03125 2.09375,0 2.453125,0 2.515625,0 2.625,0 2.625,-0.203125 2.625,-0.296875 2.53125,-0.3125 2.515625,-0.3125 c -0.09375,0 -0.40625,-0.03125 -0.40625,-0.3125 0,-0.15625 0.15625,-0.3125 0.265625,-0.4375 L 3.40625,-2.140625 4.296875,-3.125 l 1,2.390625 c 0.046875,0.109375 0.0625,0.109375 0.0625,0.140625 0,0.078125 -0.203125,0.25 -0.578125,0.28125 C 4.671875,-0.296875 4.578125,-0.296875 4.578125,-0.125 4.578125,0 4.6875,0 4.71875,0 5,0 5.703125,-0.03125 5.984375,-0.03125 6.234375,-0.03125 6.84375,0 7.09375,0 c 0.0625,0 0.1875,0 0.1875,-0.1875 0,-0.125 -0.109375,-0.125 -0.1875,-0.125 -0.65625,0 -0.6875,-0.03125 -0.859375,-0.4375 C 5.859375,-1.671875 5.1875,-3.234375 4.953125,-3.828125 5.625,-4.53125 6.671875,-5.71875 7,-5.984375 7.28125,-6.234375 7.671875,-6.46875 8.265625,-6.5 c 0.125,-0.015625 0.21875,-0.015625 0.21875,-0.203125 0,0 0,-0.109375 -0.125,-0.109375 -0.296875,0 -0.640625,0.03125 -0.9375,0.03125 -0.375,0 -0.75,-0.03125 -1.109375,-0.03125 -0.0625,0 -0.1875,0 -0.1875,0.203125 0,0.0625 0.046875,0.09375 0.109375,0.109375 0.09375,0.015625 0.40625,0.03125 0.40625,0.3125 0,0.140625 -0.109375,0.265625 -0.1875,0.359375 z m 0,0"
               id="path51"
               style="stroke:none;stroke-width:0.42519658;stroke-dasharray:none;fill:#0000ff" />
          </g>
        </g>
      </g>
    </g>
    <g
       inkscape:label=""
       transform="translate(68.192483,74.722577)"
       id="g7049"
       style="fill:#ff0000">
      <g
         fill="#000000"
         fill-opacity="1"
         id="g22"
         transform="matrix(0.352778,0,0,0.352778,-0.176389,0.0787576)"
         style="fill:#ff0000">
        <g
           id="use20"
           transform="translate(0,6.8080001)"
           style="fill:#ff0000">
          <path
             d="m 7.578125,-6.921875 c 0,-0.03125 -0.015625,-0.109375 -0.109375,-0.109375 -0.03125,0 -0.046875,0.015625 -0.15625,0.125 L 6.625,-6.140625 C 6.53125,-6.28125 6.078125,-7.03125 4.96875,-7.03125 2.734375,-7.03125 0.5,-4.828125 0.5,-2.515625 0.5,-0.875 1.671875,0.21875 3.203125,0.21875 c 0.859375,0 1.625,-0.390625 2.15625,-0.859375 0.921875,-0.8125 1.09375,-1.71875 1.09375,-1.75 C 6.453125,-2.5 6.34375,-2.5 6.328125,-2.5 c -0.0625,0 -0.109375,0.03125 -0.125,0.109375 -0.09375,0.28125 -0.328125,1 -1.015625,1.578125 -0.6875,0.546875 -1.3125,0.71875 -1.828125,0.71875 -0.890625,0 -1.953125,-0.515625 -1.953125,-2.0625 0,-0.578125 0.203125,-2.1875 1.203125,-3.359375 0.609375,-0.703125 1.546875,-1.203125 2.4375,-1.203125 1.015625,0 1.609375,0.765625 1.609375,1.921875 0,0.40625 -0.03125,0.40625 -0.03125,0.515625 0,0.09375 0.109375,0.09375 0.140625,0.09375 0.125,0 0.125,-0.015625 0.1875,-0.203125 z m 0,0"
             id="path38"
             style="fill:#ff0000" />
        </g>
      </g>
      <g
         clip-path="url(#clipPath2220)"
         id="g28"
         transform="matrix(0.352778,0,0,0.352778,-0.176389,0.0787576)"
         style="fill:#ff0000">
        <g
           fill="#000000"
           fill-opacity="1"
           id="g26"
           style="fill:#ff0000">
          <g
             id="use24"
             transform="translate(7.1209998,8.302)"
             style="fill:#ff0000">
            <path
               d="M 1.328125,-0.546875 C 1.265625,-0.3125 1.25,-0.25 0.703125,-0.25 0.59375,-0.25 0.5,-0.25 0.5,-0.109375 0.5,0 0.578125,0 0.703125,0 H 3.40625 c 1.171875,0 2.078125,-0.796875 2.078125,-1.484375 0,-0.5 -0.453125,-0.921875 -1.203125,-1 0.84375,-0.15625 1.546875,-0.6875 1.546875,-1.28125 0,-0.53125 -0.53125,-1 -1.4375,-1 h -2.53125 c -0.140625,0 -0.234375,0 -0.234375,0.15625 0,0.09375 0.09375,0.09375 0.234375,0.09375 0,0 0.140625,0 0.265625,0.015625 0.140625,0.015625 0.15625,0.03125 0.15625,0.109375 0,0 0,0.046875 -0.03125,0.140625 z m 1.109375,-2.03125 0.421875,-1.6875 c 0.0625,-0.21875 0.0625,-0.25 0.359375,-0.25 h 1.0625 c 0.703125,0 0.875,0.46875 0.875,0.734375 0,0.5625 -0.640625,1.203125 -1.578125,1.203125 z M 2.109375,-0.25 C 1.890625,-0.25 1.875,-0.265625 1.875,-0.328125 c 0,0 0,-0.03125 0.03125,-0.140625 L 2.390625,-2.375 H 3.875 c 0.640625,0 0.90625,0.4375 0.90625,0.828125 0,0.703125 -0.71875,1.296875 -1.5625,1.296875 z m 0,0"
               id="path42"
               style="fill:#ff0000" />
          </g>
        </g>
      </g>
      <g
         fill="#000000"
         fill-opacity="1"
         id="g32"
         transform="matrix(0.352778,0,0,0.352778,-0.176389,0.0787576)"
         style="fill:#ff0000">
        <g
           id="use30"
           transform="translate(13.978,6.8080001)"
           style="fill:#ff0000">
          <path
             d="M 4.828125,-4.09375 4,-6.078125 c -0.03125,-0.078125 -0.046875,-0.125 -0.046875,-0.125 0,-0.0625 0.15625,-0.25 0.578125,-0.296875 0.109375,-0.015625 0.203125,-0.015625 0.203125,-0.1875 0,-0.125 -0.125,-0.125 -0.15625,-0.125 -0.40625,0 -0.828125,0.03125 -1.25,0.03125 -0.25,0 -0.859375,-0.03125 -1.109375,-0.03125 -0.0625,0 -0.1875,0 -0.1875,0.203125 C 2.03125,-6.5 2.140625,-6.5 2.265625,-6.5 c 0.59375,0 0.65625,0.09375 0.75,0.3125 l 1.171875,2.78125 -2.109375,2.265625 -0.125,0.109375 C 1.46875,-0.5 1,-0.34375 0.484375,-0.3125 c -0.125,0.015625 -0.21875,0.015625 -0.21875,0.203125 0,0.015625 0,0.109375 0.140625,0.109375 0.296875,0 0.625,-0.03125 0.921875,-0.03125 C 1.703125,-0.03125 2.09375,0 2.453125,0 2.515625,0 2.625,0 2.625,-0.203125 2.625,-0.296875 2.53125,-0.3125 2.515625,-0.3125 c -0.09375,0 -0.40625,-0.03125 -0.40625,-0.3125 0,-0.15625 0.15625,-0.3125 0.265625,-0.4375 L 3.40625,-2.140625 4.296875,-3.125 l 1,2.390625 c 0.046875,0.109375 0.0625,0.109375 0.0625,0.140625 0,0.078125 -0.203125,0.25 -0.578125,0.28125 C 4.671875,-0.296875 4.578125,-0.296875 4.578125,-0.125 4.578125,0 4.6875,0 4.71875,0 5,0 5.703125,-0.03125 5.984375,-0.03125 6.234375,-0.03125 6.84375,0 7.09375,0 c 0.0625,0 0.1875,0 0.1875,-0.1875 0,-0.125 -0.109375,-0.125 -0.1875,-0.125 -0.65625,0 -0.6875,-0.03125 -0.859375,-0.4375 C 5.859375,-1.671875 5.1875,-3.234375 4.953125,-3.828125 5.625,-4.53125 6.671875,-5.71875 7,-5.984375 7.28125,-6.234375 7.671875,-6.46875 8.265625,-6.5 c 0.125,-0.015625 0.21875,-0.015625 0.21875,-0.203125 0,0 0,-0.109375 -0.125,-0.109375 -0.296875,0 -0.640625,0.03125 -0.9375,0.03125 -0.375,0 -0.75,-0.03125 -1.109375,-0.03125 -0.0625,0 -0.1875,0 -0.1875,0.203125 0,0.0625 0.046875,0.09375 0.109375,0.109375 0.09375,0.015625 0.40625,0.03125 0.40625,0.3125 0,0.140625 -0.109375,0.265625 -0.1875,0.359375 z m 0,0"
             id="path46"
             style="fill:#ff0000" />
        </g>
      </g>
    </g>
  </g>
</svg>
