<svg version="1.1" viewBox="0.0 0.0 960.0 720.0" fill="none" stroke="none" stroke-linecap="square" stroke-miterlimit="10" xmlns:xlink="http://www.w3.org/1999/xlink" xmlns="http://www.w3.org/2000/svg"><clipPath id="p.0"><path d="m0 0l960.0 0l0 720.0l-960.0 0l0 -720.0z" clip-rule="nonzero"/></clipPath><g clip-path="url(#p.0)"><path fill="#000000" fill-opacity="0.0" d="m0 0l960.0 0l0 720.0l-960.0 0z" fill-rule="evenodd"/><path fill="#d5a6bd" d="m228.70604 382.58792l-31.05774 -146.82414l496.93964 -25.412079l-162.35175 183.5302z" fill-rule="evenodd"/><path fill="#000000" fill-opacity="0.0" d="m197.6483 232.94226l26.83464 145.41733" fill-rule="evenodd"/><path stroke="#000000" stroke-width="4.0" stroke-linejoin="round" stroke-linecap="butt" d="m197.6483 232.94226l26.83464 145.41733" fill-rule="evenodd"/><path fill="#000000" fill-opacity="0.0" d="m689.4514 215.96063l-152.97638 177.92126" fill-rule="evenodd"/><path stroke="#000000" stroke-width="4.0" stroke-linejoin="round" stroke-linecap="butt" d="m689.4514 215.96063l-152.97638 177.92126" fill-rule="evenodd"/><path fill="#000000" fill-opacity="0.0" d="m224.46982 379.7638l-56.472443 156.69287" fill-rule="evenodd"/><path stroke="#000000" stroke-width="4.0" stroke-linejoin="round" stroke-linecap="butt" d="m224.46982 379.7638l-56.472443 156.69287" fill-rule="evenodd"/><path fill="#000000" fill-opacity="0.0" d="m539.29395 393.8819l12.692932 179.30707" fill-rule="evenodd"/><path stroke="#000000" stroke-width="4.0" stroke-linejoin="round" stroke-linecap="butt" d="m539.29395 393.8819l12.692932 179.30707" fill-rule="evenodd"/><path fill="#000000" d="m190.58792 232.96326l0 0c0 -5.4532776 4.1105194 -9.874023 9.181107 -9.874023l0 0c2.4349823 0 4.770233 1.0402985 6.4920197 2.892044c1.7217865 1.8517303 2.689087 4.36322 2.689087 6.9819794l0 0c0 5.4532623 -4.1105194 9.874008 -9.181107 9.874008l0 0c-5.070587 0 -9.181107 -4.420746 -9.181107 -9.874008z" fill-rule="evenodd"/><path stroke="#000000" stroke-width="1.0" stroke-linejoin="round" stroke-linecap="butt" d="m190.58792 232.96326l0 0c0 -5.4532776 4.1105194 -9.874023 9.181107 -9.874023l0 0c2.4349823 0 4.770233 1.0402985 6.4920197 2.892044c1.7217865 1.8517303 2.689087 4.36322 2.689087 6.9819794l0 0c0 5.4532623 -4.1105194 9.874008 -9.181107 9.874008l0 0c-5.070587 0 -9.181107 -4.420746 -9.181107 -9.874008z" fill-rule="evenodd"/><path fill="#c27ba0" d="m228.12073 387.04987l306.53546 8.146973l13.238831 174.14435l-371.7113 -30.551147z" fill-rule="evenodd"/><path fill="#000000" d="m157.82152 537.16534l0 0c0 -5.453247 4.1105194 -9.874023 9.181107 -9.874023l0 0c2.4349823 0 4.770233 1.0402832 6.4920197 2.8920288c1.7217865 1.8517456 2.689087 4.3632812 2.689087 6.9819946l0 0c0 5.453308 -4.1105194 9.874023 -9.181107 9.874023l0 0c-5.070587 0 -9.181107 -4.4207153 -9.181107 -9.874023z" fill-rule="evenodd"/><path stroke="#000000" stroke-width="1.0" stroke-linejoin="round" stroke-linecap="butt" d="m157.82152 537.16534l0 0c0 -5.453247 4.1105194 -9.874023 9.181107 -9.874023l0 0c2.4349823 0 4.770233 1.0402832 6.4920197 2.8920288c1.7217865 1.8517456 2.689087 4.3632812 2.689087 6.9819946l0 0c0 5.453308 -4.1105194 9.874023 -9.181107 9.874023l0 0c-5.070587 0 -9.181107 -4.4207153 -9.181107 -9.874023z" fill-rule="evenodd"/><path fill="#000000" d="m539.29395 574.5512l0 0c0 -5.453308 4.1105347 -9.874023 9.181091 -9.874023l0 0c2.4349976 0 4.7702637 1.0402832 6.4920654 2.8920288c1.7218018 1.8517456 2.689087 4.36322 2.689087 6.9819946l0 0c0 5.453247 -4.1105347 9.873962 -9.181152 9.873962l0 0c-5.0705566 0 -9.181091 -4.4207153 -9.181091 -9.873962z" fill-rule="evenodd"/><path stroke="#000000" stroke-width="1.0" stroke-linejoin="round" stroke-linecap="butt" d="m539.29395 574.5512l0 0c0 -5.453308 4.1105347 -9.874023 9.181091 -9.874023l0 0c2.4349976 0 4.7702637 1.0402832 6.4920654 2.8920288c1.7218018 1.8517456 2.689087 4.36322 2.689087 6.9819946l0 0c0 5.453247 -4.1105347 9.873962 -9.181152 9.873962l0 0c-5.0705566 0 -9.181091 -4.4207153 -9.181091 -9.873962z" fill-rule="evenodd"/><path fill="#000000" d="m215.15224 377.17584l0 0c0 -5.453247 4.1105194 -9.873993 9.181091 -9.873993l0 0c2.4349823 0 4.770233 1.0402832 6.4920197 2.8920288c1.7218018 1.8517151 2.689087 4.36322 2.689087 6.981964l0 0c0 5.4532776 -4.1105194 9.874023 -9.181107 9.874023l0 0c-5.070572 0 -9.181091 -4.420746 -9.181091 -9.874023z" fill-rule="evenodd"/><path stroke="#000000" stroke-width="1.0" stroke-linejoin="round" stroke-linecap="butt" d="m215.15224 377.17584l0 0c0 -5.453247 4.1105194 -9.873993 9.181091 -9.873993l0 0c2.4349823 0 4.770233 1.0402832 6.4920197 2.8920288c1.7218018 1.8517151 2.689087 4.36322 2.689087 6.981964l0 0c0 5.4532776 -4.1105194 9.874023 -9.181107 9.874023l0 0c-5.070572 0 -9.181091 -4.420746 -9.181091 -9.874023z" fill-rule="evenodd"/><path fill="#000000" d="m529.53284 396.9239l0 0c0 -5.4532776 4.1104736 -9.874023 9.181091 -9.874023l0 0c2.4349365 0 4.7702026 1.0402832 6.4920044 2.8920288c1.7218018 1.8517456 2.689087 4.3632507 2.689087 6.9819946l0 0c0 5.4532776 -4.1105347 9.874023 -9.181091 9.874023l0 0c-5.0706177 0 -9.181091 -4.420746 -9.181091 -9.874023z" fill-rule="evenodd"/><path stroke="#000000" stroke-width="1.0" stroke-linejoin="round" stroke-linecap="butt" d="m529.53284 396.9239l0 0c0 -5.4532776 4.1104736 -9.874023 9.181091 -9.874023l0 0c2.4349365 0 4.7702026 1.0402832 6.4920044 2.8920288c1.7218018 1.8517456 2.689087 4.3632507 2.689087 6.9819946l0 0c0 5.4532776 -4.1105347 9.874023 -9.181091 9.874023l0 0c-5.0706177 0 -9.181091 -4.420746 -9.181091 -9.874023z" fill-rule="evenodd"/><path fill="#000000" d="m676.2257 213.21523l0 0c0 -5.4532776 4.1105347 -9.874023 9.181091 -9.874023l0 0c2.4349976 0 4.7702637 1.0402985 6.4920654 2.892044c1.7217407 1.8517303 2.689087 4.36322 2.689087 6.9819794l0 0c0 5.4532623 -4.1105347 9.874008 -9.181152 9.874008l0 0c-5.0705566 0 -9.181091 -4.420746 -9.181091 -9.874008z" fill-rule="evenodd"/><path stroke="#000000" stroke-width="1.0" stroke-linejoin="round" stroke-linecap="butt" d="m676.2257 213.21523l0 0c0 -5.4532776 4.1105347 -9.874023 9.181091 -9.874023l0 0c2.4349976 0 4.7702637 1.0402985 6.4920654 2.892044c1.7217407 1.8517303 2.689087 4.36322 2.689087 6.9819794l0 0c0 5.4532623 -4.1105347 9.874008 -9.181152 9.874008l0 0c-5.0705566 0 -9.181091 -4.420746 -9.181091 -9.874008z" fill-rule="evenodd"/><path fill="#000000" fill-opacity="0.0" d="m199.76903 223.08923l20.220474 -56.0" fill-rule="evenodd"/><path stroke="#000000" stroke-width="4.0" stroke-linejoin="round" stroke-linecap="butt" stroke-dasharray="4.0,12.0" d="m199.76903 223.08923l20.220474 -56.0" fill-rule="evenodd"/><path fill="#000000" fill-opacity="0.0" d="m689.4514 210.3517l-19.338562 -58.551178" fill-rule="evenodd"/><path stroke="#000000" stroke-width="4.0" stroke-linejoin="round" stroke-linecap="butt" stroke-dasharray="4.0,12.0" d="m689.4514 210.3517l-19.338562 -58.551178" fill-rule="evenodd"/><path fill="#000000" fill-opacity="0.0" d="m516.32544 642.6667l31.559082 -58.236267" fill-rule="evenodd"/><path stroke="#000000" stroke-width="4.0" stroke-linejoin="round" stroke-linecap="butt" stroke-dasharray="4.0,12.0" d="m516.32544 642.6667l31.559082 -58.236267" fill-rule="evenodd"/><path fill="#000000" fill-opacity="0.0" d="m173.12862 617.20734l-5.1338654 -71.77954" fill-rule="evenodd"/><path stroke="#000000" stroke-width="4.0" stroke-linejoin="round" stroke-linecap="butt" stroke-dasharray="4.0,12.0" d="m173.12862 617.20734l-5.1338654 -71.77954" fill-rule="evenodd"/><path fill="#000000" fill-opacity="0.0" d="m554.9671 581.53314l22.456665 55.02362" fill-rule="evenodd"/><path stroke="#000000" stroke-width="4.0" stroke-linejoin="round" stroke-linecap="butt" stroke-dasharray="4.0,12.0" d="m554.9671 581.53314l22.456665 55.02362" fill-rule="evenodd"/><path fill="#000000" fill-opacity="0.0" d="m706.7638 149.7664l-15.748047 66.20473" fill-rule="evenodd"/><path stroke="#000000" stroke-width="4.0" stroke-linejoin="round" stroke-linecap="butt" stroke-dasharray="4.0,12.0" d="m706.7638 149.7664l-15.748047 66.20473" fill-rule="evenodd"/></g></svg>